G75*
%MOIN*%
%OFA0B0*%
%FSLAX25Y25*%
%IPPOS*%
%LPD*%
%AMOC8*
5,1,8,0,0,1.08239X$1,22.5*
%
%ADD10C,0.00000*%
%ADD11OC8,0.05200*%
%ADD12C,0.05200*%
%ADD13C,0.07400*%
%ADD14C,0.05150*%
%ADD15C,0.11220*%
%ADD16C,0.05200*%
%ADD17C,0.05937*%
%ADD18C,0.01000*%
%ADD19C,0.04724*%
D10*
X0001800Y0001800D02*
X0001800Y0206524D01*
X0206524Y0206524D01*
X0206524Y0001800D01*
X0001800Y0001800D01*
D11*
X0015737Y0010737D03*
X0015737Y0020737D03*
X0013312Y0035737D03*
X0053312Y0035737D03*
X0066839Y0048178D03*
X0076839Y0048178D03*
X0062028Y0011682D03*
X0102028Y0011682D03*
X0108328Y0011383D03*
X0148328Y0011383D03*
X0154847Y0035737D03*
X0192288Y0020737D03*
X0192288Y0010737D03*
X0194847Y0035737D03*
X0151209Y0089083D03*
X0142391Y0162351D03*
X0132391Y0162351D03*
X0106831Y0182796D03*
X0101831Y0190296D03*
X0111831Y0190296D03*
X0078146Y0187910D03*
X0068146Y0187910D03*
X0054391Y0187910D03*
X0044391Y0187910D03*
X0073611Y0159280D03*
D12*
X0053611Y0159280D03*
X0131209Y0089083D03*
D13*
X0073650Y0089123D03*
X0073650Y0079123D03*
X0073650Y0069123D03*
X0054091Y0017737D03*
X0034091Y0017737D03*
X0010737Y0070737D03*
X0010737Y0080737D03*
X0010737Y0090737D03*
X0010737Y0100737D03*
X0010737Y0110737D03*
X0010737Y0120737D03*
X0010737Y0130737D03*
X0010737Y0140737D03*
X0011194Y0153493D03*
X0011194Y0163493D03*
X0011194Y0173493D03*
X0011194Y0183493D03*
X0011194Y0193493D03*
X0156343Y0017737D03*
X0176343Y0017737D03*
X0197737Y0070737D03*
X0197737Y0080737D03*
X0197737Y0090737D03*
X0197737Y0100737D03*
X0197737Y0110737D03*
X0197737Y0120737D03*
X0197737Y0130737D03*
X0197737Y0140737D03*
D14*
X0187272Y0165501D03*
X0184123Y0170225D03*
X0180973Y0165501D03*
X0177824Y0170225D03*
X0174674Y0165501D03*
X0146926Y0184477D03*
X0139052Y0184477D03*
X0131178Y0184477D03*
D15*
X0166603Y0185580D03*
X0195343Y0185580D03*
D16*
X0121762Y0169162D02*
X0116562Y0169162D01*
X0116562Y0159162D02*
X0121762Y0159162D01*
X0121762Y0149162D02*
X0116562Y0149162D01*
X0116562Y0139162D02*
X0121762Y0139162D01*
X0121762Y0129162D02*
X0116562Y0129162D01*
X0116562Y0119162D02*
X0121762Y0119162D01*
X0121762Y0109162D02*
X0116562Y0109162D01*
X0116562Y0099162D02*
X0121762Y0099162D01*
X0121762Y0089162D02*
X0116562Y0089162D01*
X0116562Y0079162D02*
X0121762Y0079162D01*
X0121762Y0069162D02*
X0116562Y0069162D01*
X0116562Y0059162D02*
X0121762Y0059162D01*
X0121762Y0049162D02*
X0116562Y0049162D01*
X0116562Y0039162D02*
X0121762Y0039162D01*
X0091762Y0039162D02*
X0086562Y0039162D01*
X0086562Y0049162D02*
X0091762Y0049162D01*
X0091762Y0059162D02*
X0086562Y0059162D01*
X0086562Y0069162D02*
X0091762Y0069162D01*
X0091762Y0079162D02*
X0086562Y0079162D01*
X0086562Y0089162D02*
X0091762Y0089162D01*
X0091762Y0099162D02*
X0086562Y0099162D01*
X0086562Y0109162D02*
X0091762Y0109162D01*
X0091762Y0119162D02*
X0086562Y0119162D01*
X0086562Y0129162D02*
X0091762Y0129162D01*
X0091762Y0139162D02*
X0086562Y0139162D01*
X0086562Y0149162D02*
X0091762Y0149162D01*
X0091762Y0159162D02*
X0086562Y0159162D01*
X0086562Y0169162D02*
X0091762Y0169162D01*
D17*
X0123304Y0184477D03*
X0154800Y0184477D03*
D18*
X0146926Y0184477D02*
X0146926Y0184233D01*
X0159674Y0171485D01*
X0159737Y0079737D01*
X0147737Y0065737D02*
X0147737Y0011973D01*
X0148328Y0011383D01*
X0155343Y0045107D02*
X0156918Y0045894D01*
X0171091Y0053375D01*
X0170801Y0163894D01*
X0170799Y0163896D01*
X0170799Y0164481D01*
X0170698Y0164398D01*
X0170799Y0164481D02*
X0170799Y0167106D01*
X0173069Y0169376D01*
X0176279Y0169376D01*
X0176506Y0169148D01*
X0177824Y0170225D01*
X0180973Y0165501D02*
X0176997Y0161524D01*
X0176997Y0101013D01*
X0178556Y0099044D01*
X0179737Y0097737D01*
X0182362Y0094008D02*
X0182362Y0077480D01*
X0175013Y0069737D01*
X0185737Y0059737D02*
X0189137Y0063137D01*
X0189137Y0089208D01*
X0197737Y0097808D01*
X0197737Y0100737D01*
X0197737Y0107808D02*
X0182362Y0094008D01*
X0190937Y0081008D02*
X0190937Y0052937D01*
X0187737Y0049737D01*
X0192737Y0044737D02*
X0192737Y0072808D01*
X0197737Y0077808D01*
X0197737Y0080737D01*
X0190937Y0081008D02*
X0197737Y0087808D01*
X0197737Y0090737D01*
X0197737Y0107808D02*
X0197737Y0110737D01*
X0187737Y0113737D02*
X0187798Y0115312D01*
X0187737Y0113737D02*
X0187737Y0157336D01*
X0187627Y0159674D01*
X0188877Y0161626D01*
X0191147Y0163896D01*
X0191147Y0167106D01*
X0188020Y0170304D01*
X0187627Y0170304D01*
X0184123Y0170225D01*
X0132391Y0162351D02*
X0130467Y0162351D01*
X0121178Y0153062D01*
X0114947Y0153062D01*
X0112662Y0150778D01*
X0112662Y0127547D01*
X0119162Y0121047D01*
X0119162Y0119162D01*
X0119162Y0117278D01*
X0112662Y0110778D01*
X0112662Y0015717D01*
X0108328Y0011383D01*
X0104028Y0015682D01*
X0100371Y0015682D01*
X0098883Y0014194D01*
X0072556Y0014194D01*
X0066839Y0024635D01*
X0066839Y0048178D01*
X0062028Y0048178D01*
X0062028Y0011682D01*
X0082524Y0025737D02*
X0082662Y0025875D01*
X0082662Y0050778D01*
X0089162Y0057278D01*
X0089162Y0059162D01*
X0054044Y0050383D02*
X0015737Y0020737D01*
X0013312Y0023827D02*
X0013312Y0035737D01*
X0017769Y0045123D02*
X0035265Y0063217D01*
X0035091Y0081076D01*
X0033847Y0098508D02*
X0013099Y0082485D01*
X0010737Y0080737D01*
X0033847Y0098508D02*
X0033847Y0164934D01*
X0011351Y0183493D01*
X0011194Y0183493D01*
X0053611Y0169910D02*
X0053611Y0159280D01*
X0054044Y0050383D01*
X0015737Y0015222D02*
X0011837Y0019122D01*
X0011837Y0022352D01*
X0013312Y0023827D01*
X0015737Y0015222D02*
X0015737Y0010737D01*
X0097737Y0020918D02*
X0102299Y0024299D01*
X0102299Y0127610D01*
X0099737Y0130172D01*
X0099737Y0161737D01*
X0092312Y0169162D01*
X0089162Y0169162D01*
X0089162Y0159162D02*
X0089162Y0157278D01*
X0077319Y0148978D01*
X0077319Y0130012D01*
X0068257Y0124493D01*
X0075769Y0118099D02*
X0081481Y0122237D01*
X0081481Y0142352D01*
X0089162Y0147278D01*
X0089162Y0149162D01*
X0078965Y0169910D02*
X0053611Y0169910D01*
X0078965Y0169910D02*
X0099351Y0190296D01*
X0101831Y0190296D01*
X0192737Y0044737D02*
X0187737Y0039737D01*
X0194847Y0035737D02*
X0196188Y0034396D01*
X0196188Y0019122D01*
X0195737Y0018670D01*
X0195737Y0010237D01*
X0192288Y0010237D01*
X0192288Y0010737D01*
D19*
X0187737Y0039737D03*
X0187737Y0049737D03*
X0185737Y0059737D03*
X0175013Y0069737D03*
X0159737Y0079737D03*
X0147737Y0065737D03*
X0155343Y0045107D03*
X0179737Y0097737D03*
X0187798Y0115312D03*
X0097737Y0021018D03*
X0082524Y0025737D03*
X0035091Y0081076D03*
X0017769Y0045123D03*
X0075769Y0118099D03*
X0068257Y0124493D03*
M02*
