G75*
%MOIN*%
%OFA0B0*%
%FSLAX25Y25*%
%IPPOS*%
%LPD*%
%AMOC8*
5,1,8,0,0,1.08239X$1,22.5*
%
%ADD10C,0.00000*%
%ADD11C,0.00400*%
%ADD12C,0.00600*%
%ADD13C,0.00300*%
%ADD14C,0.01000*%
%ADD15C,0.00500*%
%ADD16R,0.02000X0.10000*%
%ADD17C,0.00800*%
%ADD18R,0.03400X0.02400*%
%ADD19C,0.01600*%
%ADD20C,0.00200*%
D10*
X0001800Y0001800D02*
X0001800Y0206524D01*
X0206524Y0206524D01*
X0206524Y0001800D01*
X0001800Y0001800D01*
D11*
X0017748Y0068535D02*
X0019322Y0068535D01*
X0020109Y0069322D01*
X0020109Y0070897D01*
X0018535Y0070897D01*
X0020109Y0072471D02*
X0019322Y0073258D01*
X0017748Y0073258D01*
X0016961Y0072471D01*
X0016961Y0069322D01*
X0017748Y0068535D01*
X0021673Y0068535D02*
X0021673Y0073258D01*
X0024821Y0068535D01*
X0024821Y0073258D01*
X0026386Y0073258D02*
X0028747Y0073258D01*
X0029534Y0072471D01*
X0029534Y0069322D01*
X0028747Y0068535D01*
X0026386Y0068535D01*
X0026386Y0073258D01*
X0027173Y0078378D02*
X0026386Y0079165D01*
X0027173Y0078378D02*
X0028747Y0078378D01*
X0029534Y0079165D01*
X0029534Y0079952D01*
X0028747Y0080739D01*
X0027960Y0080739D01*
X0028747Y0080739D02*
X0029534Y0081526D01*
X0029534Y0082313D01*
X0028747Y0083100D01*
X0027173Y0083100D01*
X0026386Y0082313D01*
X0024821Y0083100D02*
X0024821Y0079952D01*
X0023247Y0078378D01*
X0021673Y0079952D01*
X0021673Y0083100D01*
X0020109Y0082313D02*
X0020109Y0081526D01*
X0019322Y0080739D01*
X0020109Y0079952D01*
X0020109Y0079165D01*
X0019322Y0078378D01*
X0017748Y0078378D01*
X0016961Y0079165D01*
X0018535Y0080739D02*
X0019322Y0080739D01*
X0020109Y0082313D02*
X0019322Y0083100D01*
X0017748Y0083100D01*
X0016961Y0082313D01*
X0016961Y0088220D02*
X0016961Y0091369D01*
X0018535Y0092943D01*
X0020109Y0091369D01*
X0020109Y0088220D01*
X0020109Y0090582D02*
X0016961Y0090582D01*
X0021673Y0090582D02*
X0024821Y0090582D01*
X0024034Y0092943D02*
X0024034Y0088220D01*
X0026386Y0088220D02*
X0029534Y0092943D01*
X0031099Y0092943D02*
X0031099Y0088220D01*
X0034247Y0088220D01*
X0035811Y0088220D02*
X0038959Y0088220D01*
X0040524Y0088220D02*
X0042885Y0088220D01*
X0043672Y0089007D01*
X0043672Y0092156D01*
X0042885Y0092943D01*
X0040524Y0092943D01*
X0040524Y0088220D01*
X0037385Y0090582D02*
X0035811Y0090582D01*
X0035811Y0092943D02*
X0035811Y0088220D01*
X0035811Y0092943D02*
X0038959Y0092943D01*
X0038172Y0098457D02*
X0036598Y0098457D01*
X0035811Y0099244D01*
X0034247Y0099244D02*
X0034247Y0103179D01*
X0035811Y0102392D02*
X0035811Y0101605D01*
X0036598Y0100818D01*
X0038172Y0100818D01*
X0038959Y0100031D01*
X0038959Y0099244D01*
X0038172Y0098457D01*
X0040524Y0098457D02*
X0043672Y0098457D01*
X0045237Y0098457D02*
X0045237Y0103179D01*
X0047598Y0103179D01*
X0048385Y0102392D01*
X0048385Y0100818D01*
X0047598Y0100031D01*
X0045237Y0100031D01*
X0046811Y0100031D02*
X0048385Y0098457D01*
X0043672Y0103179D02*
X0040524Y0103179D01*
X0040524Y0098457D01*
X0040524Y0100818D02*
X0042098Y0100818D01*
X0038959Y0102392D02*
X0038172Y0103179D01*
X0036598Y0103179D01*
X0035811Y0102392D01*
X0034247Y0099244D02*
X0033460Y0098457D01*
X0031886Y0098457D01*
X0031099Y0099244D01*
X0031099Y0103179D01*
X0029534Y0103179D02*
X0026386Y0098457D01*
X0024034Y0098457D02*
X0024034Y0103179D01*
X0021673Y0100818D01*
X0024821Y0100818D01*
X0020109Y0101605D02*
X0019322Y0100818D01*
X0016961Y0100818D01*
X0019322Y0100818D02*
X0020109Y0100031D01*
X0020109Y0099244D01*
X0019322Y0098457D01*
X0016961Y0098457D01*
X0016961Y0103179D01*
X0019322Y0103179D01*
X0020109Y0102392D01*
X0020109Y0101605D01*
X0019322Y0108693D02*
X0016961Y0108693D01*
X0016961Y0113415D01*
X0019322Y0113415D01*
X0020109Y0112628D01*
X0020109Y0111841D01*
X0019322Y0111054D01*
X0016961Y0111054D01*
X0019322Y0111054D02*
X0020109Y0110267D01*
X0020109Y0109480D01*
X0019322Y0108693D01*
X0021673Y0109480D02*
X0022460Y0108693D01*
X0024034Y0108693D01*
X0024821Y0109480D01*
X0024821Y0110267D01*
X0024034Y0111054D01*
X0023247Y0111054D01*
X0024034Y0111054D02*
X0024821Y0111841D01*
X0024821Y0112628D01*
X0024034Y0113415D01*
X0022460Y0113415D01*
X0021673Y0112628D01*
X0021673Y0118535D02*
X0024821Y0121684D01*
X0024821Y0122471D01*
X0024034Y0123258D01*
X0022460Y0123258D01*
X0021673Y0122471D01*
X0020109Y0122471D02*
X0019322Y0123258D01*
X0016961Y0123258D01*
X0016961Y0118535D01*
X0019322Y0118535D01*
X0020109Y0119322D01*
X0020109Y0120109D01*
X0019322Y0120897D01*
X0016961Y0120897D01*
X0019322Y0120897D02*
X0020109Y0121684D01*
X0020109Y0122471D01*
X0021673Y0118535D02*
X0024821Y0118535D01*
X0024821Y0128378D02*
X0021673Y0128378D01*
X0020109Y0128378D02*
X0020109Y0131526D01*
X0018535Y0133100D01*
X0016961Y0131526D01*
X0016961Y0128378D01*
X0016961Y0130739D02*
X0020109Y0130739D01*
X0021673Y0131526D02*
X0023247Y0133100D01*
X0023247Y0128378D01*
X0022460Y0138220D02*
X0021673Y0139007D01*
X0024821Y0142156D01*
X0024821Y0139007D01*
X0024034Y0138220D01*
X0022460Y0138220D01*
X0021673Y0139007D02*
X0021673Y0142156D01*
X0022460Y0142943D01*
X0024034Y0142943D01*
X0024821Y0142156D01*
X0020109Y0141369D02*
X0020109Y0138220D01*
X0020109Y0140582D02*
X0016961Y0140582D01*
X0016961Y0141369D02*
X0018535Y0142943D01*
X0020109Y0141369D01*
X0016961Y0141369D02*
X0016961Y0138220D01*
X0016173Y0150425D02*
X0016173Y0155147D01*
X0018534Y0155147D01*
X0019321Y0154360D01*
X0019321Y0152786D01*
X0018534Y0151999D01*
X0016173Y0151999D01*
X0020886Y0151212D02*
X0021673Y0150425D01*
X0023247Y0150425D01*
X0024034Y0151212D01*
X0024034Y0152786D01*
X0022460Y0152786D01*
X0020886Y0154360D02*
X0020886Y0151212D01*
X0020886Y0154360D02*
X0021673Y0155147D01*
X0023247Y0155147D01*
X0024034Y0154360D01*
X0025599Y0154360D02*
X0025599Y0151212D01*
X0026386Y0150425D01*
X0027960Y0150425D01*
X0028747Y0151212D01*
X0028747Y0154360D02*
X0027960Y0155147D01*
X0026386Y0155147D01*
X0025599Y0154360D01*
X0025992Y0160661D02*
X0028353Y0160661D01*
X0029140Y0161448D01*
X0029140Y0164597D01*
X0028353Y0165384D01*
X0025992Y0165384D01*
X0025992Y0160661D01*
X0024428Y0161448D02*
X0024428Y0163022D01*
X0022854Y0163022D01*
X0024428Y0161448D02*
X0023641Y0160661D01*
X0022067Y0160661D01*
X0021280Y0161448D01*
X0021280Y0164597D01*
X0022067Y0165384D01*
X0023641Y0165384D01*
X0024428Y0164597D01*
X0019715Y0164597D02*
X0019715Y0163022D01*
X0018928Y0162235D01*
X0016567Y0162235D01*
X0016567Y0160661D02*
X0016567Y0165384D01*
X0018928Y0165384D01*
X0019715Y0164597D01*
X0020886Y0170898D02*
X0020886Y0175620D01*
X0024034Y0170898D01*
X0024034Y0175620D01*
X0025599Y0175620D02*
X0027960Y0175620D01*
X0028747Y0174833D01*
X0028747Y0171685D01*
X0027960Y0170898D01*
X0025599Y0170898D01*
X0025599Y0175620D01*
X0026386Y0181134D02*
X0025599Y0181921D01*
X0026386Y0181134D02*
X0027960Y0181134D01*
X0028747Y0181921D01*
X0028747Y0182708D01*
X0027960Y0183495D01*
X0027173Y0183495D01*
X0027960Y0183495D02*
X0028747Y0184282D01*
X0028747Y0185069D01*
X0027960Y0185856D01*
X0026386Y0185856D01*
X0025599Y0185069D01*
X0024034Y0185856D02*
X0024034Y0182708D01*
X0022460Y0181134D01*
X0020886Y0182708D01*
X0020886Y0185856D01*
X0019321Y0185069D02*
X0019321Y0184282D01*
X0018534Y0183495D01*
X0019321Y0182708D01*
X0019321Y0181921D01*
X0018534Y0181134D01*
X0016960Y0181134D01*
X0016173Y0181921D01*
X0017747Y0183495D02*
X0018534Y0183495D01*
X0019321Y0185069D02*
X0018534Y0185856D01*
X0016960Y0185856D01*
X0016173Y0185069D01*
X0016960Y0175620D02*
X0016173Y0174833D01*
X0016173Y0171685D01*
X0016960Y0170898D01*
X0018534Y0170898D01*
X0019321Y0171685D01*
X0019321Y0173259D01*
X0017747Y0173259D01*
X0019321Y0174833D02*
X0018534Y0175620D01*
X0016960Y0175620D01*
X0024034Y0092943D02*
X0021673Y0090582D01*
X0177591Y0072077D02*
X0177591Y0068929D01*
X0178378Y0068142D01*
X0179952Y0068142D01*
X0180739Y0068929D01*
X0180739Y0070503D01*
X0179165Y0070503D01*
X0180739Y0072077D02*
X0179952Y0072864D01*
X0178378Y0072864D01*
X0177591Y0072077D01*
X0182303Y0072864D02*
X0182303Y0068142D01*
X0185451Y0068142D02*
X0182303Y0072864D01*
X0185451Y0072864D02*
X0185451Y0068142D01*
X0187016Y0068142D02*
X0189377Y0068142D01*
X0190164Y0068929D01*
X0190164Y0072077D01*
X0189377Y0072864D01*
X0187016Y0072864D01*
X0187016Y0068142D01*
X0185857Y0078378D02*
X0184283Y0078378D01*
X0183496Y0079165D01*
X0183496Y0080739D02*
X0185070Y0081526D01*
X0185857Y0081526D01*
X0186644Y0080739D01*
X0186644Y0079165D01*
X0185857Y0078378D01*
X0188209Y0079952D02*
X0189783Y0078378D01*
X0191357Y0079952D01*
X0191357Y0083100D01*
X0188209Y0083100D02*
X0188209Y0079952D01*
X0186644Y0083100D02*
X0183496Y0083100D01*
X0183496Y0080739D01*
X0183890Y0088220D02*
X0186251Y0088220D01*
X0187038Y0089007D01*
X0187038Y0089795D01*
X0186251Y0090582D01*
X0183890Y0090582D01*
X0183890Y0092943D02*
X0183890Y0088220D01*
X0186251Y0090582D02*
X0187038Y0091369D01*
X0187038Y0092156D01*
X0186251Y0092943D01*
X0183890Y0092943D01*
X0183890Y0097276D02*
X0186251Y0097276D01*
X0187038Y0098063D01*
X0187038Y0098850D01*
X0186251Y0099637D01*
X0183890Y0099637D01*
X0183890Y0097276D02*
X0183890Y0101998D01*
X0186251Y0101998D01*
X0187038Y0101211D01*
X0187038Y0100424D01*
X0186251Y0099637D01*
X0188602Y0100424D02*
X0188602Y0101211D01*
X0189389Y0101998D01*
X0190964Y0101998D01*
X0191751Y0101211D01*
X0191751Y0100424D01*
X0190964Y0099637D01*
X0189389Y0099637D01*
X0188602Y0100424D01*
X0189389Y0099637D02*
X0188602Y0098850D01*
X0188602Y0098063D01*
X0189389Y0097276D01*
X0190964Y0097276D01*
X0191751Y0098063D01*
X0191751Y0098850D01*
X0190964Y0099637D01*
X0191751Y0092943D02*
X0188602Y0092943D01*
X0191751Y0092943D02*
X0191751Y0092156D01*
X0188602Y0089007D01*
X0188602Y0088220D01*
X0189389Y0108299D02*
X0190964Y0108299D01*
X0191751Y0109086D01*
X0191751Y0112234D01*
X0190964Y0113021D01*
X0189389Y0113021D01*
X0188602Y0112234D01*
X0188602Y0111447D01*
X0189389Y0110660D01*
X0191751Y0110660D01*
X0189389Y0108299D02*
X0188602Y0109086D01*
X0187038Y0109086D02*
X0186251Y0108299D01*
X0183890Y0108299D01*
X0183890Y0113021D01*
X0186251Y0113021D01*
X0187038Y0112234D01*
X0187038Y0111447D01*
X0186251Y0110660D01*
X0183890Y0110660D01*
X0186251Y0110660D02*
X0187038Y0109873D01*
X0187038Y0109086D01*
X0187814Y0118142D02*
X0184665Y0118142D01*
X0186239Y0118142D02*
X0186239Y0122864D01*
X0184665Y0121290D01*
X0183101Y0121290D02*
X0182314Y0120503D01*
X0179953Y0120503D01*
X0182314Y0120503D02*
X0183101Y0119716D01*
X0183101Y0118929D01*
X0182314Y0118142D01*
X0179953Y0118142D01*
X0179953Y0122864D01*
X0182314Y0122864D01*
X0183101Y0122077D01*
X0183101Y0121290D01*
X0189378Y0122077D02*
X0190165Y0122864D01*
X0191739Y0122864D01*
X0192526Y0122077D01*
X0192526Y0121290D01*
X0191739Y0120503D01*
X0192526Y0119716D01*
X0192526Y0118929D01*
X0191739Y0118142D01*
X0190165Y0118142D01*
X0189378Y0118929D01*
X0190952Y0120503D02*
X0191739Y0120503D01*
X0191739Y0128378D02*
X0191739Y0133100D01*
X0189378Y0130739D01*
X0192526Y0130739D01*
X0187814Y0128378D02*
X0184665Y0128378D01*
X0186239Y0128378D02*
X0186239Y0133100D01*
X0184665Y0131526D01*
X0183101Y0131526D02*
X0182314Y0130739D01*
X0179953Y0130739D01*
X0182314Y0130739D02*
X0183101Y0129952D01*
X0183101Y0129165D01*
X0182314Y0128378D01*
X0179953Y0128378D01*
X0179953Y0133100D01*
X0182314Y0133100D01*
X0183101Y0132313D01*
X0183101Y0131526D01*
X0182314Y0138220D02*
X0179953Y0138220D01*
X0179953Y0142943D01*
X0182314Y0142943D01*
X0183101Y0142156D01*
X0183101Y0141369D01*
X0182314Y0140582D01*
X0179953Y0140582D01*
X0182314Y0140582D02*
X0183101Y0139795D01*
X0183101Y0139007D01*
X0182314Y0138220D01*
X0184665Y0138220D02*
X0187814Y0138220D01*
X0186239Y0138220D02*
X0186239Y0142943D01*
X0184665Y0141369D01*
X0189378Y0140582D02*
X0190952Y0141369D01*
X0191739Y0141369D01*
X0192526Y0140582D01*
X0192526Y0139007D01*
X0191739Y0138220D01*
X0190165Y0138220D01*
X0189378Y0139007D01*
X0189378Y0140582D02*
X0189378Y0142943D01*
X0192526Y0142943D01*
D12*
X0166012Y0123850D02*
X0166012Y0120210D01*
X0166012Y0123850D02*
X0164799Y0125064D01*
X0161159Y0125064D01*
X0161159Y0120210D01*
X0158762Y0120210D02*
X0155122Y0120210D01*
X0153909Y0121424D01*
X0155122Y0122637D01*
X0158762Y0122637D01*
X0158762Y0123850D02*
X0158762Y0120210D01*
X0158762Y0123850D02*
X0157549Y0125064D01*
X0155122Y0125064D01*
X0151512Y0125064D02*
X0149085Y0120210D01*
X0146658Y0125064D01*
X0144256Y0125064D02*
X0143043Y0125064D01*
X0140616Y0122637D01*
X0138220Y0122637D02*
X0138220Y0123850D01*
X0137006Y0125064D01*
X0134579Y0125064D01*
X0133366Y0123850D01*
X0133366Y0121424D01*
X0134579Y0120210D01*
X0137006Y0120210D01*
X0138220Y0122637D02*
X0133366Y0122637D01*
X0130969Y0123850D02*
X0130969Y0126277D01*
X0129756Y0127490D01*
X0126116Y0127490D01*
X0126116Y0120210D01*
X0126116Y0122637D02*
X0129756Y0122637D01*
X0130969Y0123850D01*
X0130969Y0131234D02*
X0130969Y0136087D01*
X0128542Y0138514D01*
X0126116Y0136087D01*
X0126116Y0131234D01*
X0126116Y0134874D02*
X0130969Y0134874D01*
X0133366Y0136087D02*
X0133366Y0131234D01*
X0138220Y0131234D02*
X0138220Y0134874D01*
X0137006Y0136087D01*
X0133366Y0136087D01*
X0140616Y0132447D02*
X0141830Y0133661D01*
X0145470Y0133661D01*
X0145470Y0134874D02*
X0145470Y0131234D01*
X0141830Y0131234D01*
X0140616Y0132447D01*
X0141830Y0136087D02*
X0144256Y0136087D01*
X0145470Y0134874D01*
X0140616Y0125064D02*
X0140616Y0120210D01*
X0129709Y0098583D02*
X0126709Y0095583D01*
X0126709Y0082583D01*
X0129709Y0079583D01*
X0154209Y0079583D01*
X0154285Y0079585D01*
X0154361Y0079591D01*
X0154436Y0079600D01*
X0154511Y0079614D01*
X0154585Y0079631D01*
X0154658Y0079652D01*
X0154730Y0079676D01*
X0154801Y0079705D01*
X0154870Y0079736D01*
X0154937Y0079771D01*
X0155002Y0079810D01*
X0155066Y0079852D01*
X0155127Y0079897D01*
X0155186Y0079945D01*
X0155242Y0079996D01*
X0155296Y0080050D01*
X0155347Y0080106D01*
X0155395Y0080165D01*
X0155440Y0080226D01*
X0155482Y0080290D01*
X0155521Y0080355D01*
X0155556Y0080422D01*
X0155587Y0080491D01*
X0155616Y0080562D01*
X0155640Y0080634D01*
X0155661Y0080707D01*
X0155678Y0080781D01*
X0155692Y0080856D01*
X0155701Y0080931D01*
X0155707Y0081007D01*
X0155709Y0081083D01*
X0155709Y0097083D01*
X0155707Y0097159D01*
X0155701Y0097235D01*
X0155692Y0097310D01*
X0155678Y0097385D01*
X0155661Y0097459D01*
X0155640Y0097532D01*
X0155616Y0097604D01*
X0155587Y0097675D01*
X0155556Y0097744D01*
X0155521Y0097811D01*
X0155482Y0097876D01*
X0155440Y0097940D01*
X0155395Y0098001D01*
X0155347Y0098060D01*
X0155296Y0098116D01*
X0155242Y0098170D01*
X0155186Y0098221D01*
X0155127Y0098269D01*
X0155066Y0098314D01*
X0155002Y0098356D01*
X0154937Y0098395D01*
X0154870Y0098430D01*
X0154801Y0098461D01*
X0154730Y0098490D01*
X0154658Y0098514D01*
X0154585Y0098535D01*
X0154511Y0098552D01*
X0154436Y0098566D01*
X0154361Y0098575D01*
X0154285Y0098581D01*
X0154209Y0098583D01*
X0129709Y0098583D01*
X0132909Y0094483D02*
X0135509Y0094483D01*
X0134209Y0095683D02*
X0134209Y0093183D01*
X0135209Y0089083D02*
X0138709Y0089083D01*
X0138709Y0093883D01*
X0140709Y0093883D01*
X0140709Y0084283D01*
X0138709Y0084283D01*
X0138709Y0089083D01*
X0143709Y0089083D02*
X0147209Y0089083D01*
X0163347Y0040237D02*
X0164847Y0040237D01*
X0165347Y0039737D01*
X0184347Y0039737D01*
X0184847Y0040237D01*
X0186347Y0040237D01*
X0186407Y0040235D01*
X0186468Y0040230D01*
X0186527Y0040221D01*
X0186586Y0040208D01*
X0186645Y0040192D01*
X0186702Y0040172D01*
X0186757Y0040149D01*
X0186812Y0040122D01*
X0186864Y0040093D01*
X0186915Y0040060D01*
X0186964Y0040024D01*
X0187010Y0039986D01*
X0187054Y0039944D01*
X0187096Y0039900D01*
X0187134Y0039854D01*
X0187170Y0039805D01*
X0187203Y0039754D01*
X0187232Y0039702D01*
X0187259Y0039647D01*
X0187282Y0039592D01*
X0187302Y0039535D01*
X0187318Y0039476D01*
X0187331Y0039417D01*
X0187340Y0039358D01*
X0187345Y0039297D01*
X0187347Y0039237D01*
X0187347Y0032237D01*
X0187345Y0032177D01*
X0187340Y0032116D01*
X0187331Y0032057D01*
X0187318Y0031998D01*
X0187302Y0031939D01*
X0187282Y0031882D01*
X0187259Y0031827D01*
X0187232Y0031772D01*
X0187203Y0031720D01*
X0187170Y0031669D01*
X0187134Y0031620D01*
X0187096Y0031574D01*
X0187054Y0031530D01*
X0187010Y0031488D01*
X0186964Y0031450D01*
X0186915Y0031414D01*
X0186864Y0031381D01*
X0186812Y0031352D01*
X0186757Y0031325D01*
X0186702Y0031302D01*
X0186645Y0031282D01*
X0186586Y0031266D01*
X0186527Y0031253D01*
X0186468Y0031244D01*
X0186407Y0031239D01*
X0186347Y0031237D01*
X0184847Y0031237D01*
X0184347Y0031737D01*
X0165347Y0031737D01*
X0164847Y0031237D01*
X0163347Y0031237D01*
X0163287Y0031239D01*
X0163226Y0031244D01*
X0163167Y0031253D01*
X0163108Y0031266D01*
X0163049Y0031282D01*
X0162992Y0031302D01*
X0162937Y0031325D01*
X0162882Y0031352D01*
X0162830Y0031381D01*
X0162779Y0031414D01*
X0162730Y0031450D01*
X0162684Y0031488D01*
X0162640Y0031530D01*
X0162598Y0031574D01*
X0162560Y0031620D01*
X0162524Y0031669D01*
X0162491Y0031720D01*
X0162462Y0031772D01*
X0162435Y0031827D01*
X0162412Y0031882D01*
X0162392Y0031939D01*
X0162376Y0031998D01*
X0162363Y0032057D01*
X0162354Y0032116D01*
X0162349Y0032177D01*
X0162347Y0032237D01*
X0162347Y0039237D01*
X0162349Y0039297D01*
X0162354Y0039358D01*
X0162363Y0039417D01*
X0162376Y0039476D01*
X0162392Y0039535D01*
X0162412Y0039592D01*
X0162435Y0039647D01*
X0162462Y0039702D01*
X0162491Y0039754D01*
X0162524Y0039805D01*
X0162560Y0039854D01*
X0162598Y0039900D01*
X0162640Y0039944D01*
X0162684Y0039986D01*
X0162730Y0040024D01*
X0162779Y0040060D01*
X0162830Y0040093D01*
X0162882Y0040122D01*
X0162937Y0040149D01*
X0162992Y0040172D01*
X0163049Y0040192D01*
X0163108Y0040208D01*
X0163167Y0040221D01*
X0163226Y0040230D01*
X0163287Y0040235D01*
X0163347Y0040237D01*
X0139828Y0015883D02*
X0138328Y0015883D01*
X0137828Y0015383D01*
X0118828Y0015383D01*
X0118328Y0015883D01*
X0116828Y0015883D01*
X0116768Y0015881D01*
X0116707Y0015876D01*
X0116648Y0015867D01*
X0116589Y0015854D01*
X0116530Y0015838D01*
X0116473Y0015818D01*
X0116418Y0015795D01*
X0116363Y0015768D01*
X0116311Y0015739D01*
X0116260Y0015706D01*
X0116211Y0015670D01*
X0116165Y0015632D01*
X0116121Y0015590D01*
X0116079Y0015546D01*
X0116041Y0015500D01*
X0116005Y0015451D01*
X0115972Y0015400D01*
X0115943Y0015348D01*
X0115916Y0015293D01*
X0115893Y0015238D01*
X0115873Y0015181D01*
X0115857Y0015122D01*
X0115844Y0015063D01*
X0115835Y0015004D01*
X0115830Y0014943D01*
X0115828Y0014883D01*
X0115828Y0007883D01*
X0115830Y0007823D01*
X0115835Y0007762D01*
X0115844Y0007703D01*
X0115857Y0007644D01*
X0115873Y0007585D01*
X0115893Y0007528D01*
X0115916Y0007473D01*
X0115943Y0007418D01*
X0115972Y0007366D01*
X0116005Y0007315D01*
X0116041Y0007266D01*
X0116079Y0007220D01*
X0116121Y0007176D01*
X0116165Y0007134D01*
X0116211Y0007096D01*
X0116260Y0007060D01*
X0116311Y0007027D01*
X0116363Y0006998D01*
X0116418Y0006971D01*
X0116473Y0006948D01*
X0116530Y0006928D01*
X0116589Y0006912D01*
X0116648Y0006899D01*
X0116707Y0006890D01*
X0116768Y0006885D01*
X0116828Y0006883D01*
X0118328Y0006883D01*
X0118828Y0007383D01*
X0137828Y0007383D01*
X0138328Y0006883D01*
X0139828Y0006883D01*
X0139888Y0006885D01*
X0139949Y0006890D01*
X0140008Y0006899D01*
X0140067Y0006912D01*
X0140126Y0006928D01*
X0140183Y0006948D01*
X0140238Y0006971D01*
X0140293Y0006998D01*
X0140345Y0007027D01*
X0140396Y0007060D01*
X0140445Y0007096D01*
X0140491Y0007134D01*
X0140535Y0007176D01*
X0140577Y0007220D01*
X0140615Y0007266D01*
X0140651Y0007315D01*
X0140684Y0007366D01*
X0140713Y0007418D01*
X0140740Y0007473D01*
X0140763Y0007528D01*
X0140783Y0007585D01*
X0140799Y0007644D01*
X0140812Y0007703D01*
X0140821Y0007762D01*
X0140826Y0007823D01*
X0140828Y0007883D01*
X0140828Y0014883D01*
X0140826Y0014943D01*
X0140821Y0015004D01*
X0140812Y0015063D01*
X0140799Y0015122D01*
X0140783Y0015181D01*
X0140763Y0015238D01*
X0140740Y0015293D01*
X0140713Y0015348D01*
X0140684Y0015400D01*
X0140651Y0015451D01*
X0140615Y0015500D01*
X0140577Y0015546D01*
X0140535Y0015590D01*
X0140491Y0015632D01*
X0140445Y0015670D01*
X0140396Y0015706D01*
X0140345Y0015739D01*
X0140293Y0015768D01*
X0140238Y0015795D01*
X0140183Y0015818D01*
X0140126Y0015838D01*
X0140067Y0015854D01*
X0140008Y0015867D01*
X0139949Y0015876D01*
X0139888Y0015881D01*
X0139828Y0015883D01*
X0161840Y0012077D02*
X0161840Y0009950D01*
X0162265Y0009525D01*
X0163116Y0009525D01*
X0163541Y0009950D01*
X0163541Y0012077D01*
X0164740Y0011652D02*
X0164740Y0011226D01*
X0165166Y0010801D01*
X0166016Y0010801D01*
X0166441Y0010376D01*
X0166441Y0009950D01*
X0166016Y0009525D01*
X0165166Y0009525D01*
X0164740Y0009950D01*
X0164740Y0011652D02*
X0165166Y0012077D01*
X0166016Y0012077D01*
X0166441Y0011652D01*
X0167640Y0012077D02*
X0167640Y0009525D01*
X0169342Y0009525D01*
X0170540Y0009525D02*
X0170540Y0012077D01*
X0171816Y0012077D01*
X0172242Y0011652D01*
X0172242Y0010801D01*
X0171816Y0010376D01*
X0170540Y0010376D01*
X0171391Y0010376D02*
X0172242Y0009525D01*
X0169342Y0012077D02*
X0167640Y0012077D01*
X0167640Y0010801D02*
X0168491Y0010801D01*
X0195888Y0020537D02*
X0196007Y0020445D01*
X0196124Y0020351D01*
X0196238Y0020253D01*
X0196350Y0020153D01*
X0196460Y0020049D01*
X0196566Y0019944D01*
X0196671Y0019835D01*
X0196772Y0019724D01*
X0196870Y0019610D01*
X0196966Y0019494D01*
X0197059Y0019376D01*
X0197148Y0019255D01*
X0197235Y0019132D01*
X0197318Y0019007D01*
X0197399Y0018880D01*
X0197476Y0018751D01*
X0197550Y0018620D01*
X0197621Y0018487D01*
X0197688Y0018353D01*
X0197752Y0018217D01*
X0197812Y0018079D01*
X0197869Y0017940D01*
X0197922Y0017799D01*
X0197972Y0017657D01*
X0198019Y0017514D01*
X0198061Y0017370D01*
X0198101Y0017225D01*
X0198136Y0017079D01*
X0198168Y0016932D01*
X0198196Y0016784D01*
X0198220Y0016636D01*
X0198241Y0016487D01*
X0198258Y0016337D01*
X0198271Y0016188D01*
X0198280Y0016038D01*
X0198286Y0015887D01*
X0198288Y0015737D01*
X0188605Y0020473D02*
X0188486Y0020379D01*
X0188370Y0020281D01*
X0188256Y0020181D01*
X0188145Y0020077D01*
X0188037Y0019971D01*
X0187931Y0019863D01*
X0187829Y0019751D01*
X0187729Y0019637D01*
X0187631Y0019521D01*
X0187537Y0019402D01*
X0187446Y0019281D01*
X0187358Y0019157D01*
X0187273Y0019031D01*
X0187192Y0018904D01*
X0187113Y0018774D01*
X0187038Y0018642D01*
X0186967Y0018509D01*
X0186898Y0018373D01*
X0186833Y0018236D01*
X0186772Y0018098D01*
X0186714Y0017957D01*
X0186660Y0017816D01*
X0186609Y0017673D01*
X0186562Y0017529D01*
X0186518Y0017384D01*
X0186479Y0017237D01*
X0186443Y0017090D01*
X0186410Y0016942D01*
X0186382Y0016793D01*
X0186357Y0016643D01*
X0186336Y0016493D01*
X0186319Y0016343D01*
X0186305Y0016191D01*
X0186296Y0016040D01*
X0186290Y0015889D01*
X0186288Y0015737D01*
X0195775Y0010855D02*
X0195900Y0010946D01*
X0196022Y0011040D01*
X0196141Y0011138D01*
X0196258Y0011238D01*
X0196372Y0011342D01*
X0196484Y0011448D01*
X0196592Y0011557D01*
X0196698Y0011669D01*
X0196801Y0011784D01*
X0196901Y0011901D01*
X0196999Y0012021D01*
X0197092Y0012143D01*
X0197183Y0012267D01*
X0197271Y0012394D01*
X0197355Y0012523D01*
X0197436Y0012655D01*
X0197513Y0012788D01*
X0197587Y0012923D01*
X0197658Y0013060D01*
X0197725Y0013199D01*
X0197788Y0013339D01*
X0197848Y0013482D01*
X0197904Y0013625D01*
X0197956Y0013770D01*
X0198005Y0013916D01*
X0198050Y0014064D01*
X0198091Y0014212D01*
X0198128Y0014362D01*
X0198162Y0014512D01*
X0198191Y0014664D01*
X0198217Y0014816D01*
X0198239Y0014968D01*
X0198256Y0015121D01*
X0198270Y0015275D01*
X0198280Y0015429D01*
X0198286Y0015583D01*
X0198288Y0015737D01*
X0188605Y0011001D02*
X0188486Y0011095D01*
X0188370Y0011193D01*
X0188256Y0011293D01*
X0188145Y0011397D01*
X0188037Y0011503D01*
X0187931Y0011611D01*
X0187829Y0011723D01*
X0187729Y0011837D01*
X0187631Y0011953D01*
X0187537Y0012072D01*
X0187446Y0012193D01*
X0187358Y0012317D01*
X0187273Y0012443D01*
X0187192Y0012570D01*
X0187113Y0012700D01*
X0187038Y0012832D01*
X0186967Y0012965D01*
X0186898Y0013101D01*
X0186833Y0013238D01*
X0186772Y0013376D01*
X0186714Y0013517D01*
X0186660Y0013658D01*
X0186609Y0013801D01*
X0186562Y0013945D01*
X0186518Y0014090D01*
X0186479Y0014237D01*
X0186443Y0014384D01*
X0186410Y0014532D01*
X0186382Y0014681D01*
X0186357Y0014831D01*
X0186336Y0014981D01*
X0186319Y0015131D01*
X0186305Y0015283D01*
X0186296Y0015434D01*
X0186290Y0015585D01*
X0186288Y0015737D01*
X0115662Y0034162D02*
X0092662Y0034162D01*
X0092662Y0174162D01*
X0100162Y0174162D01*
X0100164Y0174036D01*
X0100170Y0173911D01*
X0100180Y0173786D01*
X0100194Y0173661D01*
X0100211Y0173536D01*
X0100233Y0173412D01*
X0100258Y0173289D01*
X0100288Y0173167D01*
X0100321Y0173046D01*
X0100358Y0172926D01*
X0100398Y0172807D01*
X0100443Y0172690D01*
X0100491Y0172573D01*
X0100543Y0172459D01*
X0100598Y0172346D01*
X0100657Y0172235D01*
X0100719Y0172126D01*
X0100785Y0172019D01*
X0100854Y0171914D01*
X0100926Y0171811D01*
X0101001Y0171710D01*
X0101080Y0171612D01*
X0101162Y0171517D01*
X0101246Y0171424D01*
X0101334Y0171334D01*
X0101424Y0171246D01*
X0101517Y0171162D01*
X0101612Y0171080D01*
X0101710Y0171001D01*
X0101811Y0170926D01*
X0101914Y0170854D01*
X0102019Y0170785D01*
X0102126Y0170719D01*
X0102235Y0170657D01*
X0102346Y0170598D01*
X0102459Y0170543D01*
X0102573Y0170491D01*
X0102690Y0170443D01*
X0102807Y0170398D01*
X0102926Y0170358D01*
X0103046Y0170321D01*
X0103167Y0170288D01*
X0103289Y0170258D01*
X0103412Y0170233D01*
X0103536Y0170211D01*
X0103661Y0170194D01*
X0103786Y0170180D01*
X0103911Y0170170D01*
X0104036Y0170164D01*
X0104162Y0170162D01*
X0104288Y0170164D01*
X0104413Y0170170D01*
X0104538Y0170180D01*
X0104663Y0170194D01*
X0104788Y0170211D01*
X0104912Y0170233D01*
X0105035Y0170258D01*
X0105157Y0170288D01*
X0105278Y0170321D01*
X0105398Y0170358D01*
X0105517Y0170398D01*
X0105634Y0170443D01*
X0105751Y0170491D01*
X0105865Y0170543D01*
X0105978Y0170598D01*
X0106089Y0170657D01*
X0106198Y0170719D01*
X0106305Y0170785D01*
X0106410Y0170854D01*
X0106513Y0170926D01*
X0106614Y0171001D01*
X0106712Y0171080D01*
X0106807Y0171162D01*
X0106900Y0171246D01*
X0106990Y0171334D01*
X0107078Y0171424D01*
X0107162Y0171517D01*
X0107244Y0171612D01*
X0107323Y0171710D01*
X0107398Y0171811D01*
X0107470Y0171914D01*
X0107539Y0172019D01*
X0107605Y0172126D01*
X0107667Y0172235D01*
X0107726Y0172346D01*
X0107781Y0172459D01*
X0107833Y0172573D01*
X0107881Y0172690D01*
X0107926Y0172807D01*
X0107966Y0172926D01*
X0108003Y0173046D01*
X0108036Y0173167D01*
X0108066Y0173289D01*
X0108091Y0173412D01*
X0108113Y0173536D01*
X0108130Y0173661D01*
X0108144Y0173786D01*
X0108154Y0173911D01*
X0108160Y0174036D01*
X0108162Y0174162D01*
X0115662Y0174162D01*
X0115662Y0034162D01*
X0094528Y0015182D02*
X0094528Y0008182D01*
X0094526Y0008122D01*
X0094521Y0008061D01*
X0094512Y0008002D01*
X0094499Y0007943D01*
X0094483Y0007884D01*
X0094463Y0007827D01*
X0094440Y0007772D01*
X0094413Y0007717D01*
X0094384Y0007665D01*
X0094351Y0007614D01*
X0094315Y0007565D01*
X0094277Y0007519D01*
X0094235Y0007475D01*
X0094191Y0007433D01*
X0094145Y0007395D01*
X0094096Y0007359D01*
X0094045Y0007326D01*
X0093993Y0007297D01*
X0093938Y0007270D01*
X0093883Y0007247D01*
X0093826Y0007227D01*
X0093767Y0007211D01*
X0093708Y0007198D01*
X0093649Y0007189D01*
X0093588Y0007184D01*
X0093528Y0007182D01*
X0092028Y0007182D01*
X0091528Y0007682D01*
X0072528Y0007682D01*
X0072028Y0007182D01*
X0070528Y0007182D01*
X0070468Y0007184D01*
X0070407Y0007189D01*
X0070348Y0007198D01*
X0070289Y0007211D01*
X0070230Y0007227D01*
X0070173Y0007247D01*
X0070118Y0007270D01*
X0070063Y0007297D01*
X0070011Y0007326D01*
X0069960Y0007359D01*
X0069911Y0007395D01*
X0069865Y0007433D01*
X0069821Y0007475D01*
X0069779Y0007519D01*
X0069741Y0007565D01*
X0069705Y0007614D01*
X0069672Y0007665D01*
X0069643Y0007717D01*
X0069616Y0007772D01*
X0069593Y0007827D01*
X0069573Y0007884D01*
X0069557Y0007943D01*
X0069544Y0008002D01*
X0069535Y0008061D01*
X0069530Y0008122D01*
X0069528Y0008182D01*
X0069528Y0015182D01*
X0069530Y0015242D01*
X0069535Y0015303D01*
X0069544Y0015362D01*
X0069557Y0015421D01*
X0069573Y0015480D01*
X0069593Y0015537D01*
X0069616Y0015592D01*
X0069643Y0015647D01*
X0069672Y0015699D01*
X0069705Y0015750D01*
X0069741Y0015799D01*
X0069779Y0015845D01*
X0069821Y0015889D01*
X0069865Y0015931D01*
X0069911Y0015969D01*
X0069960Y0016005D01*
X0070011Y0016038D01*
X0070063Y0016067D01*
X0070118Y0016094D01*
X0070173Y0016117D01*
X0070230Y0016137D01*
X0070289Y0016153D01*
X0070348Y0016166D01*
X0070407Y0016175D01*
X0070468Y0016180D01*
X0070528Y0016182D01*
X0072028Y0016182D01*
X0072528Y0015682D01*
X0091528Y0015682D01*
X0092028Y0016182D01*
X0093528Y0016182D01*
X0093588Y0016180D01*
X0093649Y0016175D01*
X0093708Y0016166D01*
X0093767Y0016153D01*
X0093826Y0016137D01*
X0093883Y0016117D01*
X0093938Y0016094D01*
X0093993Y0016067D01*
X0094045Y0016038D01*
X0094096Y0016005D01*
X0094145Y0015969D01*
X0094191Y0015931D01*
X0094235Y0015889D01*
X0094277Y0015845D01*
X0094315Y0015799D01*
X0094351Y0015750D01*
X0094384Y0015699D01*
X0094413Y0015647D01*
X0094440Y0015592D01*
X0094463Y0015537D01*
X0094483Y0015480D01*
X0094499Y0015421D01*
X0094512Y0015362D01*
X0094521Y0015303D01*
X0094526Y0015242D01*
X0094528Y0015182D01*
X0080339Y0039178D02*
X0063339Y0039178D01*
X0063279Y0039180D01*
X0063218Y0039185D01*
X0063159Y0039194D01*
X0063100Y0039207D01*
X0063041Y0039223D01*
X0062984Y0039243D01*
X0062929Y0039266D01*
X0062874Y0039293D01*
X0062822Y0039322D01*
X0062771Y0039355D01*
X0062722Y0039391D01*
X0062676Y0039429D01*
X0062632Y0039471D01*
X0062590Y0039515D01*
X0062552Y0039561D01*
X0062516Y0039610D01*
X0062483Y0039661D01*
X0062454Y0039713D01*
X0062427Y0039768D01*
X0062404Y0039823D01*
X0062384Y0039880D01*
X0062368Y0039939D01*
X0062355Y0039998D01*
X0062346Y0040057D01*
X0062341Y0040118D01*
X0062339Y0040178D01*
X0062339Y0056178D01*
X0062341Y0056238D01*
X0062346Y0056299D01*
X0062355Y0056358D01*
X0062368Y0056417D01*
X0062384Y0056476D01*
X0062404Y0056533D01*
X0062427Y0056588D01*
X0062454Y0056643D01*
X0062483Y0056695D01*
X0062516Y0056746D01*
X0062552Y0056795D01*
X0062590Y0056841D01*
X0062632Y0056885D01*
X0062676Y0056927D01*
X0062722Y0056965D01*
X0062771Y0057001D01*
X0062822Y0057034D01*
X0062874Y0057063D01*
X0062929Y0057090D01*
X0062984Y0057113D01*
X0063041Y0057133D01*
X0063100Y0057149D01*
X0063159Y0057162D01*
X0063218Y0057171D01*
X0063279Y0057176D01*
X0063339Y0057178D01*
X0080339Y0057178D01*
X0080399Y0057176D01*
X0080460Y0057171D01*
X0080519Y0057162D01*
X0080578Y0057149D01*
X0080637Y0057133D01*
X0080694Y0057113D01*
X0080749Y0057090D01*
X0080804Y0057063D01*
X0080856Y0057034D01*
X0080907Y0057001D01*
X0080956Y0056965D01*
X0081002Y0056927D01*
X0081046Y0056885D01*
X0081088Y0056841D01*
X0081126Y0056795D01*
X0081162Y0056746D01*
X0081195Y0056695D01*
X0081224Y0056643D01*
X0081251Y0056588D01*
X0081274Y0056533D01*
X0081294Y0056476D01*
X0081310Y0056417D01*
X0081323Y0056358D01*
X0081332Y0056299D01*
X0081337Y0056238D01*
X0081339Y0056178D01*
X0081339Y0040178D01*
X0081337Y0040118D01*
X0081332Y0040057D01*
X0081323Y0039998D01*
X0081310Y0039939D01*
X0081294Y0039880D01*
X0081274Y0039823D01*
X0081251Y0039768D01*
X0081224Y0039713D01*
X0081195Y0039661D01*
X0081162Y0039610D01*
X0081126Y0039561D01*
X0081088Y0039515D01*
X0081046Y0039471D01*
X0081002Y0039429D01*
X0080956Y0039391D01*
X0080907Y0039355D01*
X0080856Y0039322D01*
X0080804Y0039293D01*
X0080749Y0039266D01*
X0080694Y0039243D01*
X0080637Y0039223D01*
X0080578Y0039207D01*
X0080519Y0039194D01*
X0080460Y0039185D01*
X0080399Y0039180D01*
X0080339Y0039178D01*
X0073339Y0048178D02*
X0072839Y0048178D01*
X0070839Y0048178D02*
X0070339Y0048178D01*
X0045812Y0039237D02*
X0045812Y0032237D01*
X0045810Y0032177D01*
X0045805Y0032116D01*
X0045796Y0032057D01*
X0045783Y0031998D01*
X0045767Y0031939D01*
X0045747Y0031882D01*
X0045724Y0031827D01*
X0045697Y0031772D01*
X0045668Y0031720D01*
X0045635Y0031669D01*
X0045599Y0031620D01*
X0045561Y0031574D01*
X0045519Y0031530D01*
X0045475Y0031488D01*
X0045429Y0031450D01*
X0045380Y0031414D01*
X0045329Y0031381D01*
X0045277Y0031352D01*
X0045222Y0031325D01*
X0045167Y0031302D01*
X0045110Y0031282D01*
X0045051Y0031266D01*
X0044992Y0031253D01*
X0044933Y0031244D01*
X0044872Y0031239D01*
X0044812Y0031237D01*
X0043312Y0031237D01*
X0042812Y0031737D01*
X0023812Y0031737D01*
X0023312Y0031237D01*
X0021812Y0031237D01*
X0021752Y0031239D01*
X0021691Y0031244D01*
X0021632Y0031253D01*
X0021573Y0031266D01*
X0021514Y0031282D01*
X0021457Y0031302D01*
X0021402Y0031325D01*
X0021347Y0031352D01*
X0021295Y0031381D01*
X0021244Y0031414D01*
X0021195Y0031450D01*
X0021149Y0031488D01*
X0021105Y0031530D01*
X0021063Y0031574D01*
X0021025Y0031620D01*
X0020989Y0031669D01*
X0020956Y0031720D01*
X0020927Y0031772D01*
X0020900Y0031827D01*
X0020877Y0031882D01*
X0020857Y0031939D01*
X0020841Y0031998D01*
X0020828Y0032057D01*
X0020819Y0032116D01*
X0020814Y0032177D01*
X0020812Y0032237D01*
X0020812Y0039237D01*
X0020814Y0039297D01*
X0020819Y0039358D01*
X0020828Y0039417D01*
X0020841Y0039476D01*
X0020857Y0039535D01*
X0020877Y0039592D01*
X0020900Y0039647D01*
X0020927Y0039702D01*
X0020956Y0039754D01*
X0020989Y0039805D01*
X0021025Y0039854D01*
X0021063Y0039900D01*
X0021105Y0039944D01*
X0021149Y0039986D01*
X0021195Y0040024D01*
X0021244Y0040060D01*
X0021295Y0040093D01*
X0021347Y0040122D01*
X0021402Y0040149D01*
X0021457Y0040172D01*
X0021514Y0040192D01*
X0021573Y0040208D01*
X0021632Y0040221D01*
X0021691Y0040230D01*
X0021752Y0040235D01*
X0021812Y0040237D01*
X0023312Y0040237D01*
X0023812Y0039737D01*
X0042812Y0039737D01*
X0043312Y0040237D01*
X0044812Y0040237D01*
X0044872Y0040235D01*
X0044933Y0040230D01*
X0044992Y0040221D01*
X0045051Y0040208D01*
X0045110Y0040192D01*
X0045167Y0040172D01*
X0045222Y0040149D01*
X0045277Y0040122D01*
X0045329Y0040093D01*
X0045380Y0040060D01*
X0045429Y0040024D01*
X0045475Y0039986D01*
X0045519Y0039944D01*
X0045561Y0039900D01*
X0045599Y0039854D01*
X0045635Y0039805D01*
X0045668Y0039754D01*
X0045697Y0039702D01*
X0045724Y0039647D01*
X0045747Y0039592D01*
X0045767Y0039535D01*
X0045783Y0039476D01*
X0045796Y0039417D01*
X0045805Y0039358D01*
X0045810Y0039297D01*
X0045812Y0039237D01*
X0045363Y0012171D02*
X0045363Y0009620D01*
X0047064Y0009620D01*
X0046213Y0010896D02*
X0045363Y0010896D01*
X0044164Y0010470D02*
X0044164Y0010045D01*
X0043739Y0009620D01*
X0042888Y0009620D01*
X0042463Y0010045D01*
X0042888Y0010896D02*
X0043739Y0010896D01*
X0044164Y0010470D01*
X0044164Y0011746D02*
X0043739Y0012171D01*
X0042888Y0012171D01*
X0042463Y0011746D01*
X0042463Y0011321D01*
X0042888Y0010896D01*
X0041264Y0012171D02*
X0039563Y0012171D01*
X0039563Y0009620D01*
X0041264Y0009620D01*
X0040413Y0010896D02*
X0039563Y0010896D01*
X0038364Y0010896D02*
X0037938Y0010470D01*
X0036662Y0010470D01*
X0036662Y0009620D02*
X0036662Y0012171D01*
X0037938Y0012171D01*
X0038364Y0011746D01*
X0038364Y0010896D01*
X0037513Y0010470D02*
X0038364Y0009620D01*
X0045363Y0012171D02*
X0047064Y0012171D01*
X0048263Y0012171D02*
X0049964Y0012171D01*
X0049113Y0012171D02*
X0049113Y0009620D01*
X0012054Y0020473D02*
X0011935Y0020379D01*
X0011819Y0020281D01*
X0011705Y0020181D01*
X0011594Y0020077D01*
X0011486Y0019971D01*
X0011380Y0019863D01*
X0011278Y0019751D01*
X0011178Y0019637D01*
X0011080Y0019521D01*
X0010986Y0019402D01*
X0010895Y0019281D01*
X0010807Y0019157D01*
X0010722Y0019031D01*
X0010641Y0018904D01*
X0010562Y0018774D01*
X0010487Y0018642D01*
X0010416Y0018509D01*
X0010347Y0018373D01*
X0010282Y0018236D01*
X0010221Y0018098D01*
X0010163Y0017957D01*
X0010109Y0017816D01*
X0010058Y0017673D01*
X0010011Y0017529D01*
X0009967Y0017384D01*
X0009928Y0017237D01*
X0009892Y0017090D01*
X0009859Y0016942D01*
X0009831Y0016793D01*
X0009806Y0016643D01*
X0009785Y0016493D01*
X0009768Y0016343D01*
X0009754Y0016191D01*
X0009745Y0016040D01*
X0009739Y0015889D01*
X0009737Y0015737D01*
X0019337Y0020537D02*
X0019456Y0020445D01*
X0019573Y0020351D01*
X0019687Y0020253D01*
X0019799Y0020153D01*
X0019909Y0020049D01*
X0020015Y0019944D01*
X0020120Y0019835D01*
X0020221Y0019724D01*
X0020319Y0019610D01*
X0020415Y0019494D01*
X0020508Y0019376D01*
X0020597Y0019255D01*
X0020684Y0019132D01*
X0020767Y0019007D01*
X0020848Y0018880D01*
X0020925Y0018751D01*
X0020999Y0018620D01*
X0021070Y0018487D01*
X0021137Y0018353D01*
X0021201Y0018217D01*
X0021261Y0018079D01*
X0021318Y0017940D01*
X0021371Y0017799D01*
X0021421Y0017657D01*
X0021468Y0017514D01*
X0021510Y0017370D01*
X0021550Y0017225D01*
X0021585Y0017079D01*
X0021617Y0016932D01*
X0021645Y0016784D01*
X0021669Y0016636D01*
X0021690Y0016487D01*
X0021707Y0016337D01*
X0021720Y0016188D01*
X0021729Y0016038D01*
X0021735Y0015887D01*
X0021737Y0015737D01*
X0012054Y0011001D02*
X0011935Y0011095D01*
X0011819Y0011193D01*
X0011705Y0011293D01*
X0011594Y0011397D01*
X0011486Y0011503D01*
X0011380Y0011611D01*
X0011278Y0011723D01*
X0011178Y0011837D01*
X0011080Y0011953D01*
X0010986Y0012072D01*
X0010895Y0012193D01*
X0010807Y0012317D01*
X0010722Y0012443D01*
X0010641Y0012570D01*
X0010562Y0012700D01*
X0010487Y0012832D01*
X0010416Y0012965D01*
X0010347Y0013101D01*
X0010282Y0013238D01*
X0010221Y0013376D01*
X0010163Y0013517D01*
X0010109Y0013658D01*
X0010058Y0013801D01*
X0010011Y0013945D01*
X0009967Y0014090D01*
X0009928Y0014237D01*
X0009892Y0014384D01*
X0009859Y0014532D01*
X0009831Y0014681D01*
X0009806Y0014831D01*
X0009785Y0014981D01*
X0009768Y0015131D01*
X0009754Y0015283D01*
X0009745Y0015434D01*
X0009739Y0015585D01*
X0009737Y0015737D01*
X0019224Y0010855D02*
X0019349Y0010946D01*
X0019471Y0011040D01*
X0019590Y0011138D01*
X0019707Y0011238D01*
X0019821Y0011342D01*
X0019933Y0011448D01*
X0020041Y0011557D01*
X0020147Y0011669D01*
X0020250Y0011784D01*
X0020350Y0011901D01*
X0020448Y0012021D01*
X0020541Y0012143D01*
X0020632Y0012267D01*
X0020720Y0012394D01*
X0020804Y0012523D01*
X0020885Y0012655D01*
X0020962Y0012788D01*
X0021036Y0012923D01*
X0021107Y0013060D01*
X0021174Y0013199D01*
X0021237Y0013339D01*
X0021297Y0013482D01*
X0021353Y0013625D01*
X0021405Y0013770D01*
X0021454Y0013916D01*
X0021499Y0014064D01*
X0021540Y0014212D01*
X0021577Y0014362D01*
X0021611Y0014512D01*
X0021640Y0014664D01*
X0021666Y0014816D01*
X0021688Y0014968D01*
X0021705Y0015121D01*
X0021719Y0015275D01*
X0021729Y0015429D01*
X0021735Y0015583D01*
X0021737Y0015737D01*
X0052111Y0149780D02*
X0049111Y0152780D01*
X0049111Y0165780D01*
X0052111Y0168780D01*
X0076611Y0168780D01*
X0076687Y0168778D01*
X0076763Y0168772D01*
X0076838Y0168763D01*
X0076913Y0168749D01*
X0076987Y0168732D01*
X0077060Y0168711D01*
X0077132Y0168687D01*
X0077203Y0168658D01*
X0077272Y0168627D01*
X0077339Y0168592D01*
X0077404Y0168553D01*
X0077468Y0168511D01*
X0077529Y0168466D01*
X0077588Y0168418D01*
X0077644Y0168367D01*
X0077698Y0168313D01*
X0077749Y0168257D01*
X0077797Y0168198D01*
X0077842Y0168137D01*
X0077884Y0168073D01*
X0077923Y0168008D01*
X0077958Y0167941D01*
X0077989Y0167872D01*
X0078018Y0167801D01*
X0078042Y0167729D01*
X0078063Y0167656D01*
X0078080Y0167582D01*
X0078094Y0167507D01*
X0078103Y0167432D01*
X0078109Y0167356D01*
X0078111Y0167280D01*
X0078111Y0151280D01*
X0078109Y0151204D01*
X0078103Y0151128D01*
X0078094Y0151053D01*
X0078080Y0150978D01*
X0078063Y0150904D01*
X0078042Y0150831D01*
X0078018Y0150759D01*
X0077989Y0150688D01*
X0077958Y0150619D01*
X0077923Y0150552D01*
X0077884Y0150487D01*
X0077842Y0150423D01*
X0077797Y0150362D01*
X0077749Y0150303D01*
X0077698Y0150247D01*
X0077644Y0150193D01*
X0077588Y0150142D01*
X0077529Y0150094D01*
X0077468Y0150049D01*
X0077404Y0150007D01*
X0077339Y0149968D01*
X0077272Y0149933D01*
X0077203Y0149902D01*
X0077132Y0149873D01*
X0077060Y0149849D01*
X0076987Y0149828D01*
X0076913Y0149811D01*
X0076838Y0149797D01*
X0076763Y0149788D01*
X0076687Y0149782D01*
X0076611Y0149780D01*
X0052111Y0149780D01*
X0061111Y0154480D02*
X0063111Y0154480D01*
X0063111Y0164080D01*
X0061111Y0164080D01*
X0061111Y0159280D01*
X0061111Y0154480D01*
X0061111Y0159280D02*
X0057611Y0159280D01*
X0056611Y0163380D02*
X0056611Y0165880D01*
X0057911Y0164680D02*
X0055311Y0164680D01*
X0066111Y0159280D02*
X0069611Y0159280D01*
X0064646Y0178910D02*
X0081646Y0178910D01*
X0081706Y0178912D01*
X0081767Y0178917D01*
X0081826Y0178926D01*
X0081885Y0178939D01*
X0081944Y0178955D01*
X0082001Y0178975D01*
X0082056Y0178998D01*
X0082111Y0179025D01*
X0082163Y0179054D01*
X0082214Y0179087D01*
X0082263Y0179123D01*
X0082309Y0179161D01*
X0082353Y0179203D01*
X0082395Y0179247D01*
X0082433Y0179293D01*
X0082469Y0179342D01*
X0082502Y0179393D01*
X0082531Y0179445D01*
X0082558Y0179500D01*
X0082581Y0179555D01*
X0082601Y0179612D01*
X0082617Y0179671D01*
X0082630Y0179730D01*
X0082639Y0179789D01*
X0082644Y0179850D01*
X0082646Y0179910D01*
X0082646Y0195910D01*
X0082644Y0195970D01*
X0082639Y0196031D01*
X0082630Y0196090D01*
X0082617Y0196149D01*
X0082601Y0196208D01*
X0082581Y0196265D01*
X0082558Y0196320D01*
X0082531Y0196375D01*
X0082502Y0196427D01*
X0082469Y0196478D01*
X0082433Y0196527D01*
X0082395Y0196573D01*
X0082353Y0196617D01*
X0082309Y0196659D01*
X0082263Y0196697D01*
X0082214Y0196733D01*
X0082163Y0196766D01*
X0082111Y0196795D01*
X0082056Y0196822D01*
X0082001Y0196845D01*
X0081944Y0196865D01*
X0081885Y0196881D01*
X0081826Y0196894D01*
X0081767Y0196903D01*
X0081706Y0196908D01*
X0081646Y0196910D01*
X0064646Y0196910D01*
X0064586Y0196908D01*
X0064525Y0196903D01*
X0064466Y0196894D01*
X0064407Y0196881D01*
X0064348Y0196865D01*
X0064291Y0196845D01*
X0064236Y0196822D01*
X0064181Y0196795D01*
X0064129Y0196766D01*
X0064078Y0196733D01*
X0064029Y0196697D01*
X0063983Y0196659D01*
X0063939Y0196617D01*
X0063897Y0196573D01*
X0063859Y0196527D01*
X0063823Y0196478D01*
X0063790Y0196427D01*
X0063761Y0196375D01*
X0063734Y0196320D01*
X0063711Y0196265D01*
X0063691Y0196208D01*
X0063675Y0196149D01*
X0063662Y0196090D01*
X0063653Y0196031D01*
X0063648Y0195970D01*
X0063646Y0195910D01*
X0063646Y0179910D01*
X0063648Y0179850D01*
X0063653Y0179789D01*
X0063662Y0179730D01*
X0063675Y0179671D01*
X0063691Y0179612D01*
X0063711Y0179555D01*
X0063734Y0179500D01*
X0063761Y0179445D01*
X0063790Y0179393D01*
X0063823Y0179342D01*
X0063859Y0179293D01*
X0063897Y0179247D01*
X0063939Y0179203D01*
X0063983Y0179161D01*
X0064029Y0179123D01*
X0064078Y0179087D01*
X0064129Y0179054D01*
X0064181Y0179025D01*
X0064236Y0178998D01*
X0064291Y0178975D01*
X0064348Y0178955D01*
X0064407Y0178939D01*
X0064466Y0178926D01*
X0064525Y0178917D01*
X0064586Y0178912D01*
X0064646Y0178910D01*
X0058891Y0179910D02*
X0058891Y0195910D01*
X0058889Y0195970D01*
X0058884Y0196031D01*
X0058875Y0196090D01*
X0058862Y0196149D01*
X0058846Y0196208D01*
X0058826Y0196265D01*
X0058803Y0196320D01*
X0058776Y0196375D01*
X0058747Y0196427D01*
X0058714Y0196478D01*
X0058678Y0196527D01*
X0058640Y0196573D01*
X0058598Y0196617D01*
X0058554Y0196659D01*
X0058508Y0196697D01*
X0058459Y0196733D01*
X0058408Y0196766D01*
X0058356Y0196795D01*
X0058301Y0196822D01*
X0058246Y0196845D01*
X0058189Y0196865D01*
X0058130Y0196881D01*
X0058071Y0196894D01*
X0058012Y0196903D01*
X0057951Y0196908D01*
X0057891Y0196910D01*
X0040891Y0196910D01*
X0040831Y0196908D01*
X0040770Y0196903D01*
X0040711Y0196894D01*
X0040652Y0196881D01*
X0040593Y0196865D01*
X0040536Y0196845D01*
X0040481Y0196822D01*
X0040426Y0196795D01*
X0040374Y0196766D01*
X0040323Y0196733D01*
X0040274Y0196697D01*
X0040228Y0196659D01*
X0040184Y0196617D01*
X0040142Y0196573D01*
X0040104Y0196527D01*
X0040068Y0196478D01*
X0040035Y0196427D01*
X0040006Y0196375D01*
X0039979Y0196320D01*
X0039956Y0196265D01*
X0039936Y0196208D01*
X0039920Y0196149D01*
X0039907Y0196090D01*
X0039898Y0196031D01*
X0039893Y0195970D01*
X0039891Y0195910D01*
X0039891Y0179910D01*
X0039893Y0179850D01*
X0039898Y0179789D01*
X0039907Y0179730D01*
X0039920Y0179671D01*
X0039936Y0179612D01*
X0039956Y0179555D01*
X0039979Y0179500D01*
X0040006Y0179445D01*
X0040035Y0179393D01*
X0040068Y0179342D01*
X0040104Y0179293D01*
X0040142Y0179247D01*
X0040184Y0179203D01*
X0040228Y0179161D01*
X0040274Y0179123D01*
X0040323Y0179087D01*
X0040374Y0179054D01*
X0040426Y0179025D01*
X0040481Y0178998D01*
X0040536Y0178975D01*
X0040593Y0178955D01*
X0040652Y0178939D01*
X0040711Y0178926D01*
X0040770Y0178917D01*
X0040831Y0178912D01*
X0040891Y0178910D01*
X0057891Y0178910D01*
X0057951Y0178912D01*
X0058012Y0178917D01*
X0058071Y0178926D01*
X0058130Y0178939D01*
X0058189Y0178955D01*
X0058246Y0178975D01*
X0058301Y0178998D01*
X0058356Y0179025D01*
X0058408Y0179054D01*
X0058459Y0179087D01*
X0058508Y0179123D01*
X0058554Y0179161D01*
X0058598Y0179203D01*
X0058640Y0179247D01*
X0058678Y0179293D01*
X0058714Y0179342D01*
X0058747Y0179393D01*
X0058776Y0179445D01*
X0058803Y0179500D01*
X0058826Y0179555D01*
X0058846Y0179612D01*
X0058862Y0179671D01*
X0058875Y0179730D01*
X0058884Y0179789D01*
X0058889Y0179850D01*
X0058891Y0179910D01*
X0050891Y0187910D02*
X0050391Y0187910D01*
X0048391Y0187910D02*
X0047891Y0187910D01*
X0071646Y0187910D02*
X0072146Y0187910D01*
X0074146Y0187910D02*
X0074646Y0187910D01*
X0127891Y0170351D02*
X0127891Y0154351D01*
X0127893Y0154291D01*
X0127898Y0154230D01*
X0127907Y0154171D01*
X0127920Y0154112D01*
X0127936Y0154053D01*
X0127956Y0153996D01*
X0127979Y0153941D01*
X0128006Y0153886D01*
X0128035Y0153834D01*
X0128068Y0153783D01*
X0128104Y0153734D01*
X0128142Y0153688D01*
X0128184Y0153644D01*
X0128228Y0153602D01*
X0128274Y0153564D01*
X0128323Y0153528D01*
X0128374Y0153495D01*
X0128426Y0153466D01*
X0128481Y0153439D01*
X0128536Y0153416D01*
X0128593Y0153396D01*
X0128652Y0153380D01*
X0128711Y0153367D01*
X0128770Y0153358D01*
X0128831Y0153353D01*
X0128891Y0153351D01*
X0145891Y0153351D01*
X0145951Y0153353D01*
X0146012Y0153358D01*
X0146071Y0153367D01*
X0146130Y0153380D01*
X0146189Y0153396D01*
X0146246Y0153416D01*
X0146301Y0153439D01*
X0146356Y0153466D01*
X0146408Y0153495D01*
X0146459Y0153528D01*
X0146508Y0153564D01*
X0146554Y0153602D01*
X0146598Y0153644D01*
X0146640Y0153688D01*
X0146678Y0153734D01*
X0146714Y0153783D01*
X0146747Y0153834D01*
X0146776Y0153886D01*
X0146803Y0153941D01*
X0146826Y0153996D01*
X0146846Y0154053D01*
X0146862Y0154112D01*
X0146875Y0154171D01*
X0146884Y0154230D01*
X0146889Y0154291D01*
X0146891Y0154351D01*
X0146891Y0170351D01*
X0146889Y0170411D01*
X0146884Y0170472D01*
X0146875Y0170531D01*
X0146862Y0170590D01*
X0146846Y0170649D01*
X0146826Y0170706D01*
X0146803Y0170761D01*
X0146776Y0170816D01*
X0146747Y0170868D01*
X0146714Y0170919D01*
X0146678Y0170968D01*
X0146640Y0171014D01*
X0146598Y0171058D01*
X0146554Y0171100D01*
X0146508Y0171138D01*
X0146459Y0171174D01*
X0146408Y0171207D01*
X0146356Y0171236D01*
X0146301Y0171263D01*
X0146246Y0171286D01*
X0146189Y0171306D01*
X0146130Y0171322D01*
X0146071Y0171335D01*
X0146012Y0171344D01*
X0145951Y0171349D01*
X0145891Y0171351D01*
X0128891Y0171351D01*
X0128831Y0171349D01*
X0128770Y0171344D01*
X0128711Y0171335D01*
X0128652Y0171322D01*
X0128593Y0171306D01*
X0128536Y0171286D01*
X0128481Y0171263D01*
X0128426Y0171236D01*
X0128374Y0171207D01*
X0128323Y0171174D01*
X0128274Y0171138D01*
X0128228Y0171100D01*
X0128184Y0171058D01*
X0128142Y0171014D01*
X0128104Y0170968D01*
X0128068Y0170919D01*
X0128035Y0170868D01*
X0128006Y0170816D01*
X0127979Y0170761D01*
X0127956Y0170706D01*
X0127936Y0170649D01*
X0127920Y0170590D01*
X0127907Y0170531D01*
X0127898Y0170472D01*
X0127893Y0170411D01*
X0127891Y0170351D01*
X0135891Y0162351D02*
X0136391Y0162351D01*
X0138391Y0162351D02*
X0138891Y0162351D01*
D13*
X0136844Y0116433D02*
X0136844Y0115826D01*
X0136844Y0114613D02*
X0136844Y0112186D01*
X0137450Y0112186D02*
X0136237Y0112186D01*
X0138654Y0112186D02*
X0139867Y0112186D01*
X0139260Y0112186D02*
X0139260Y0115826D01*
X0138654Y0115826D01*
X0136844Y0114613D02*
X0136237Y0114613D01*
X0135036Y0114613D02*
X0134429Y0114613D01*
X0133216Y0113400D01*
X0133216Y0114613D02*
X0133216Y0112186D01*
X0132018Y0112793D02*
X0131411Y0112186D01*
X0129591Y0112186D01*
X0128392Y0112186D02*
X0128392Y0114613D01*
X0127179Y0115826D01*
X0125966Y0114613D01*
X0125966Y0112186D01*
X0125966Y0114006D02*
X0128392Y0114006D01*
X0129591Y0114613D02*
X0129591Y0110973D01*
X0132018Y0112793D02*
X0132018Y0114006D01*
X0131411Y0114613D01*
X0129591Y0114613D01*
X0144696Y0115220D02*
X0145302Y0115826D01*
X0146516Y0115826D01*
X0147122Y0115220D01*
X0147122Y0114613D01*
X0144696Y0112186D01*
X0147122Y0112186D01*
X0148321Y0112793D02*
X0150747Y0115220D01*
X0150747Y0112793D01*
X0150141Y0112186D01*
X0148927Y0112186D01*
X0148321Y0112793D01*
X0148321Y0115220D01*
X0148927Y0115826D01*
X0150141Y0115826D01*
X0150747Y0115220D01*
X0151946Y0114613D02*
X0153159Y0115826D01*
X0153159Y0112186D01*
X0151946Y0112186D02*
X0154373Y0112186D01*
X0155571Y0112186D02*
X0155571Y0112793D01*
X0157998Y0115220D01*
X0157998Y0115826D01*
X0155571Y0115826D01*
D14*
X0138391Y0159351D02*
X0138391Y0162351D01*
X0138391Y0165351D01*
X0136391Y0165351D02*
X0136391Y0162351D01*
X0136391Y0159351D01*
X0074146Y0184910D02*
X0074146Y0187910D01*
X0074146Y0190910D01*
X0072146Y0190910D02*
X0072146Y0187910D01*
X0072146Y0184910D01*
X0050391Y0184910D02*
X0050391Y0187910D01*
X0050391Y0190910D01*
X0048391Y0190910D02*
X0048391Y0187910D01*
X0048391Y0184910D01*
X0070839Y0051178D02*
X0070839Y0048178D01*
X0070839Y0045178D01*
X0072839Y0045178D02*
X0072839Y0048178D01*
X0072839Y0051178D01*
X0011768Y0022683D02*
X0011599Y0022584D01*
X0011433Y0022480D01*
X0011269Y0022373D01*
X0011108Y0022262D01*
X0010950Y0022147D01*
X0010795Y0022028D01*
X0010642Y0021905D01*
X0010493Y0021779D01*
X0010347Y0021649D01*
X0010204Y0021515D01*
X0010064Y0021378D01*
X0009928Y0021238D01*
X0009795Y0021094D01*
X0009666Y0020947D01*
X0009540Y0020797D01*
X0009419Y0020644D01*
X0009300Y0020488D01*
X0009186Y0020329D01*
X0009076Y0020168D01*
X0008970Y0020003D01*
X0008867Y0019837D01*
X0008769Y0019667D01*
X0008675Y0019496D01*
X0008585Y0019322D01*
X0008500Y0019146D01*
X0008418Y0018968D01*
X0008342Y0018788D01*
X0008269Y0018606D01*
X0008201Y0018423D01*
X0008138Y0018238D01*
X0008079Y0018051D01*
X0008025Y0017863D01*
X0007975Y0017674D01*
X0007930Y0017484D01*
X0007890Y0017292D01*
X0007854Y0017100D01*
X0007823Y0016907D01*
X0007797Y0016713D01*
X0007775Y0016518D01*
X0007759Y0016323D01*
X0007747Y0016128D01*
X0007739Y0015932D01*
X0007737Y0015737D01*
X0019502Y0022796D02*
X0019670Y0022703D01*
X0019836Y0022607D01*
X0020000Y0022507D01*
X0020161Y0022402D01*
X0020320Y0022294D01*
X0020476Y0022182D01*
X0020630Y0022066D01*
X0020780Y0021947D01*
X0020928Y0021824D01*
X0021073Y0021698D01*
X0021214Y0021568D01*
X0021353Y0021435D01*
X0021488Y0021298D01*
X0021620Y0021158D01*
X0021748Y0021016D01*
X0021873Y0020870D01*
X0021995Y0020721D01*
X0022113Y0020569D01*
X0022227Y0020415D01*
X0022337Y0020257D01*
X0022444Y0020098D01*
X0022547Y0019935D01*
X0022646Y0019770D01*
X0022741Y0019603D01*
X0022831Y0019434D01*
X0022918Y0019263D01*
X0023001Y0019089D01*
X0023079Y0018914D01*
X0023153Y0018736D01*
X0023223Y0018557D01*
X0023289Y0018377D01*
X0023350Y0018195D01*
X0023407Y0018011D01*
X0023459Y0017826D01*
X0023507Y0017640D01*
X0023551Y0017453D01*
X0023590Y0017265D01*
X0023624Y0017076D01*
X0023654Y0016886D01*
X0023679Y0016696D01*
X0023700Y0016505D01*
X0023716Y0016313D01*
X0023728Y0016121D01*
X0023735Y0015929D01*
X0023737Y0015737D01*
X0010569Y0009630D02*
X0010423Y0009757D01*
X0010281Y0009886D01*
X0010141Y0010020D01*
X0010005Y0010156D01*
X0009872Y0010296D01*
X0009742Y0010439D01*
X0009616Y0010586D01*
X0009494Y0010735D01*
X0009375Y0010887D01*
X0009260Y0011042D01*
X0009148Y0011199D01*
X0009041Y0011359D01*
X0008937Y0011522D01*
X0008838Y0011688D01*
X0008742Y0011855D01*
X0008650Y0012025D01*
X0008563Y0012197D01*
X0008479Y0012371D01*
X0008400Y0012547D01*
X0008326Y0012725D01*
X0008255Y0012905D01*
X0008189Y0013086D01*
X0008127Y0013269D01*
X0008070Y0013453D01*
X0008017Y0013639D01*
X0007969Y0013826D01*
X0007925Y0014014D01*
X0007886Y0014203D01*
X0007851Y0014393D01*
X0007821Y0014583D01*
X0007795Y0014774D01*
X0007774Y0014966D01*
X0007758Y0015159D01*
X0007746Y0015351D01*
X0007739Y0015544D01*
X0007737Y0015737D01*
X0020859Y0009591D02*
X0021007Y0009718D01*
X0021152Y0009848D01*
X0021293Y0009981D01*
X0021432Y0010118D01*
X0021567Y0010258D01*
X0021698Y0010402D01*
X0021826Y0010549D01*
X0021951Y0010698D01*
X0022072Y0010851D01*
X0022189Y0011006D01*
X0022302Y0011165D01*
X0022411Y0011326D01*
X0022516Y0011490D01*
X0022618Y0011656D01*
X0022715Y0011825D01*
X0022808Y0011995D01*
X0022897Y0012169D01*
X0022982Y0012344D01*
X0023062Y0012521D01*
X0023138Y0012700D01*
X0023210Y0012881D01*
X0023277Y0013064D01*
X0023340Y0013248D01*
X0023398Y0013434D01*
X0023452Y0013621D01*
X0023501Y0013809D01*
X0023546Y0013999D01*
X0023586Y0014189D01*
X0023621Y0014381D01*
X0023652Y0014573D01*
X0023678Y0014766D01*
X0023699Y0014960D01*
X0023716Y0015154D01*
X0023728Y0015348D01*
X0023735Y0015542D01*
X0023737Y0015737D01*
X0196053Y0022796D02*
X0196221Y0022703D01*
X0196387Y0022607D01*
X0196551Y0022507D01*
X0196712Y0022402D01*
X0196871Y0022294D01*
X0197027Y0022182D01*
X0197181Y0022066D01*
X0197331Y0021947D01*
X0197479Y0021824D01*
X0197624Y0021698D01*
X0197765Y0021568D01*
X0197904Y0021435D01*
X0198039Y0021298D01*
X0198171Y0021158D01*
X0198299Y0021016D01*
X0198424Y0020870D01*
X0198546Y0020721D01*
X0198664Y0020569D01*
X0198778Y0020415D01*
X0198888Y0020257D01*
X0198995Y0020098D01*
X0199098Y0019935D01*
X0199197Y0019770D01*
X0199292Y0019603D01*
X0199382Y0019434D01*
X0199469Y0019263D01*
X0199552Y0019089D01*
X0199630Y0018914D01*
X0199704Y0018736D01*
X0199774Y0018557D01*
X0199840Y0018377D01*
X0199901Y0018195D01*
X0199958Y0018011D01*
X0200010Y0017826D01*
X0200058Y0017640D01*
X0200102Y0017453D01*
X0200141Y0017265D01*
X0200175Y0017076D01*
X0200205Y0016886D01*
X0200230Y0016696D01*
X0200251Y0016505D01*
X0200267Y0016313D01*
X0200279Y0016121D01*
X0200286Y0015929D01*
X0200288Y0015737D01*
X0188319Y0022683D02*
X0188150Y0022584D01*
X0187984Y0022480D01*
X0187820Y0022373D01*
X0187659Y0022262D01*
X0187501Y0022147D01*
X0187346Y0022028D01*
X0187193Y0021905D01*
X0187044Y0021779D01*
X0186898Y0021649D01*
X0186755Y0021515D01*
X0186615Y0021378D01*
X0186479Y0021238D01*
X0186346Y0021094D01*
X0186217Y0020947D01*
X0186091Y0020797D01*
X0185970Y0020644D01*
X0185851Y0020488D01*
X0185737Y0020329D01*
X0185627Y0020168D01*
X0185521Y0020003D01*
X0185418Y0019837D01*
X0185320Y0019667D01*
X0185226Y0019496D01*
X0185136Y0019322D01*
X0185051Y0019146D01*
X0184969Y0018968D01*
X0184893Y0018788D01*
X0184820Y0018606D01*
X0184752Y0018423D01*
X0184689Y0018238D01*
X0184630Y0018051D01*
X0184576Y0017863D01*
X0184526Y0017674D01*
X0184481Y0017484D01*
X0184441Y0017292D01*
X0184405Y0017100D01*
X0184374Y0016907D01*
X0184348Y0016713D01*
X0184326Y0016518D01*
X0184310Y0016323D01*
X0184298Y0016128D01*
X0184290Y0015932D01*
X0184288Y0015737D01*
X0184290Y0015544D01*
X0184297Y0015351D01*
X0184309Y0015159D01*
X0184325Y0014966D01*
X0184346Y0014774D01*
X0184372Y0014583D01*
X0184402Y0014393D01*
X0184437Y0014203D01*
X0184476Y0014014D01*
X0184520Y0013826D01*
X0184568Y0013639D01*
X0184621Y0013453D01*
X0184678Y0013269D01*
X0184740Y0013086D01*
X0184806Y0012905D01*
X0184877Y0012725D01*
X0184951Y0012547D01*
X0185030Y0012371D01*
X0185114Y0012197D01*
X0185201Y0012025D01*
X0185293Y0011855D01*
X0185389Y0011688D01*
X0185488Y0011522D01*
X0185592Y0011359D01*
X0185699Y0011199D01*
X0185811Y0011042D01*
X0185926Y0010887D01*
X0186045Y0010735D01*
X0186167Y0010586D01*
X0186293Y0010439D01*
X0186423Y0010296D01*
X0186556Y0010156D01*
X0186692Y0010020D01*
X0186832Y0009886D01*
X0186974Y0009757D01*
X0187120Y0009630D01*
X0197410Y0009591D02*
X0197558Y0009718D01*
X0197703Y0009848D01*
X0197844Y0009981D01*
X0197983Y0010118D01*
X0198118Y0010258D01*
X0198249Y0010402D01*
X0198377Y0010549D01*
X0198502Y0010698D01*
X0198623Y0010851D01*
X0198740Y0011006D01*
X0198853Y0011165D01*
X0198962Y0011326D01*
X0199067Y0011490D01*
X0199169Y0011656D01*
X0199266Y0011825D01*
X0199359Y0011995D01*
X0199448Y0012169D01*
X0199533Y0012344D01*
X0199613Y0012521D01*
X0199689Y0012700D01*
X0199761Y0012881D01*
X0199828Y0013064D01*
X0199891Y0013248D01*
X0199949Y0013434D01*
X0200003Y0013621D01*
X0200052Y0013809D01*
X0200097Y0013999D01*
X0200137Y0014189D01*
X0200172Y0014381D01*
X0200203Y0014573D01*
X0200229Y0014766D01*
X0200250Y0014960D01*
X0200267Y0015154D01*
X0200279Y0015348D01*
X0200286Y0015542D01*
X0200288Y0015737D01*
D15*
X0181477Y0040967D02*
X0179936Y0040967D01*
X0179166Y0041738D01*
X0182247Y0044819D01*
X0182247Y0041738D01*
X0181477Y0040967D01*
X0179166Y0041738D02*
X0179166Y0044819D01*
X0179936Y0045589D01*
X0181477Y0045589D01*
X0182247Y0044819D01*
X0177535Y0044819D02*
X0177535Y0044049D01*
X0176764Y0043278D01*
X0177535Y0042508D01*
X0177535Y0041738D01*
X0176764Y0040967D01*
X0175224Y0040967D01*
X0174453Y0041738D01*
X0172822Y0041738D02*
X0172052Y0040967D01*
X0170511Y0040967D01*
X0169741Y0041738D01*
X0171281Y0043278D02*
X0172052Y0043278D01*
X0172822Y0042508D01*
X0172822Y0041738D01*
X0172052Y0043278D02*
X0172822Y0044049D01*
X0172822Y0044819D01*
X0172052Y0045589D01*
X0170511Y0045589D01*
X0169741Y0044819D01*
X0174453Y0044819D02*
X0175224Y0045589D01*
X0176764Y0045589D01*
X0177535Y0044819D01*
X0176764Y0043278D02*
X0175994Y0043278D01*
X0163843Y0020237D02*
X0168843Y0017737D01*
X0171343Y0017737D01*
X0163843Y0017737D02*
X0161343Y0017737D01*
X0132712Y0016495D02*
X0130401Y0018036D01*
X0132712Y0019576D01*
X0130401Y0021117D02*
X0130401Y0016495D01*
X0128769Y0017265D02*
X0127999Y0016495D01*
X0126458Y0016495D01*
X0125688Y0017265D01*
X0128769Y0020347D01*
X0128769Y0017265D01*
X0125688Y0017265D02*
X0125688Y0020347D01*
X0126458Y0021117D01*
X0127999Y0021117D01*
X0128769Y0020347D01*
X0124057Y0016495D02*
X0120975Y0016495D01*
X0122516Y0016495D02*
X0122516Y0021117D01*
X0120975Y0019576D01*
X0086019Y0019875D02*
X0083708Y0018335D01*
X0086019Y0016794D01*
X0083708Y0016794D02*
X0083708Y0021416D01*
X0082076Y0020646D02*
X0078995Y0017564D01*
X0079765Y0016794D01*
X0081306Y0016794D01*
X0082076Y0017564D01*
X0082076Y0020646D01*
X0081306Y0021416D01*
X0079765Y0021416D01*
X0078995Y0020646D01*
X0078995Y0017564D01*
X0077364Y0016794D02*
X0074282Y0016794D01*
X0075823Y0016794D02*
X0075823Y0021416D01*
X0074282Y0019875D01*
X0073240Y0033034D02*
X0070158Y0033034D01*
X0071699Y0033034D02*
X0071699Y0037656D01*
X0070158Y0036116D01*
X0068572Y0033805D02*
X0068572Y0033034D01*
X0067802Y0033034D01*
X0067802Y0033805D01*
X0068572Y0033805D01*
X0066171Y0033805D02*
X0065400Y0033034D01*
X0063860Y0033034D01*
X0063089Y0033805D01*
X0066171Y0036886D01*
X0066171Y0033805D01*
X0066171Y0036886D02*
X0065400Y0037656D01*
X0063860Y0037656D01*
X0063089Y0036886D01*
X0063089Y0033805D01*
X0074871Y0033805D02*
X0075641Y0033034D01*
X0077952Y0033034D01*
X0077952Y0036116D01*
X0079584Y0035345D02*
X0081124Y0035345D01*
X0079584Y0033034D02*
X0079584Y0037656D01*
X0082665Y0037656D01*
X0074871Y0036116D02*
X0074871Y0033805D01*
X0049091Y0017737D02*
X0046591Y0017737D01*
X0046591Y0015237D02*
X0041591Y0017737D01*
X0039091Y0017737D01*
X0037304Y0040849D02*
X0035764Y0040849D01*
X0034993Y0041620D01*
X0038075Y0044701D01*
X0038075Y0041620D01*
X0037304Y0040849D01*
X0034993Y0041620D02*
X0034993Y0044701D01*
X0035764Y0045471D01*
X0037304Y0045471D01*
X0038075Y0044701D01*
X0033362Y0044701D02*
X0033362Y0043931D01*
X0032592Y0043160D01*
X0033362Y0042390D01*
X0033362Y0041620D01*
X0032592Y0040849D01*
X0031051Y0040849D01*
X0030281Y0041620D01*
X0028649Y0041620D02*
X0028649Y0042390D01*
X0027879Y0043160D01*
X0027109Y0043160D01*
X0027879Y0043160D02*
X0028649Y0043931D01*
X0028649Y0044701D01*
X0027879Y0045471D01*
X0026338Y0045471D01*
X0025568Y0044701D01*
X0025568Y0041620D02*
X0026338Y0040849D01*
X0027879Y0040849D01*
X0028649Y0041620D01*
X0030281Y0044701D02*
X0031051Y0045471D01*
X0032592Y0045471D01*
X0033362Y0044701D01*
X0032592Y0043160D02*
X0031821Y0043160D01*
X0071329Y0095554D02*
X0071950Y0095554D01*
X0072261Y0095865D01*
X0072261Y0097107D01*
X0071950Y0097418D01*
X0071329Y0097418D01*
X0071019Y0097107D01*
X0071019Y0095865D01*
X0071329Y0095554D01*
X0073194Y0095865D02*
X0073504Y0095554D01*
X0074125Y0095554D01*
X0074436Y0095865D01*
X0074436Y0096175D01*
X0074125Y0096486D01*
X0073504Y0096486D01*
X0073194Y0096796D01*
X0073194Y0097107D01*
X0073504Y0097418D01*
X0074125Y0097418D01*
X0074436Y0097107D01*
X0075369Y0097107D02*
X0075369Y0095865D01*
X0075679Y0095554D01*
X0076301Y0095554D01*
X0076611Y0095865D01*
X0076611Y0097107D02*
X0076301Y0097418D01*
X0075679Y0097418D01*
X0075369Y0097107D01*
X0104664Y0098579D02*
X0109286Y0095498D01*
X0109286Y0093867D02*
X0104664Y0093867D01*
X0106205Y0092326D01*
X0104664Y0090785D01*
X0109286Y0090785D01*
X0109286Y0089154D02*
X0109286Y0086073D01*
X0106205Y0089154D01*
X0105435Y0089154D01*
X0104664Y0088384D01*
X0104664Y0086843D01*
X0105435Y0086073D01*
X0105435Y0084441D02*
X0106205Y0084441D01*
X0106975Y0083671D01*
X0107746Y0084441D01*
X0108516Y0084441D01*
X0109286Y0083671D01*
X0109286Y0082130D01*
X0108516Y0081360D01*
X0108516Y0079729D02*
X0109286Y0078958D01*
X0109286Y0077418D01*
X0108516Y0076647D01*
X0105435Y0076647D01*
X0104664Y0077418D01*
X0104664Y0078958D01*
X0105435Y0079729D01*
X0105435Y0081360D02*
X0104664Y0082130D01*
X0104664Y0083671D01*
X0105435Y0084441D01*
X0106975Y0083671D02*
X0106975Y0082901D01*
X0104664Y0075046D02*
X0104664Y0073505D01*
X0104664Y0074276D02*
X0109286Y0074276D01*
X0109286Y0075046D02*
X0109286Y0073505D01*
X0106975Y0071874D02*
X0107746Y0071104D01*
X0107746Y0068793D01*
X0109286Y0068793D02*
X0104664Y0068793D01*
X0104664Y0071104D01*
X0105435Y0071874D01*
X0106975Y0071874D01*
X0104664Y0095498D02*
X0109286Y0098579D01*
X0109286Y0100211D02*
X0106205Y0103292D01*
X0105435Y0103292D01*
X0104664Y0102522D01*
X0104664Y0100981D01*
X0105435Y0100211D01*
X0109286Y0100211D02*
X0109286Y0103292D01*
X0108516Y0104923D02*
X0109286Y0105694D01*
X0109286Y0107234D01*
X0108516Y0108005D01*
X0106975Y0108005D01*
X0106205Y0107234D01*
X0106205Y0106464D01*
X0106975Y0104923D01*
X0104664Y0104923D01*
X0104664Y0108005D01*
X0105435Y0109636D02*
X0104664Y0110406D01*
X0104664Y0111947D01*
X0105435Y0112717D01*
X0108516Y0109636D01*
X0109286Y0110406D01*
X0109286Y0111947D01*
X0108516Y0112717D01*
X0105435Y0112717D01*
X0104664Y0114349D02*
X0104664Y0117430D01*
X0106205Y0119061D02*
X0104664Y0120602D01*
X0109286Y0120602D01*
X0109286Y0119061D02*
X0109286Y0122143D01*
X0109286Y0123774D02*
X0106205Y0126855D01*
X0105435Y0126855D01*
X0104664Y0126085D01*
X0104664Y0124544D01*
X0105435Y0123774D01*
X0109286Y0123774D02*
X0109286Y0126855D01*
X0108516Y0128487D02*
X0107746Y0128487D01*
X0106975Y0129257D01*
X0106975Y0130798D01*
X0107746Y0131568D01*
X0108516Y0131568D01*
X0109286Y0130798D01*
X0109286Y0129257D01*
X0108516Y0128487D01*
X0106975Y0129257D02*
X0106205Y0128487D01*
X0105435Y0128487D01*
X0104664Y0129257D01*
X0104664Y0130798D01*
X0105435Y0131568D01*
X0106205Y0131568D01*
X0106975Y0130798D01*
X0106975Y0133199D02*
X0106975Y0135510D01*
X0107746Y0136281D01*
X0108516Y0136281D01*
X0109286Y0135510D01*
X0109286Y0133199D01*
X0104664Y0133199D01*
X0104664Y0135510D01*
X0105435Y0136281D01*
X0106205Y0136281D01*
X0106975Y0135510D01*
X0106975Y0115889D02*
X0106975Y0114349D01*
X0109286Y0114349D02*
X0104664Y0114349D01*
X0105435Y0109636D02*
X0108516Y0109636D01*
X0136272Y0078400D02*
X0136272Y0073778D01*
X0137812Y0073778D02*
X0134731Y0073778D01*
X0134731Y0076860D02*
X0136272Y0078400D01*
X0139444Y0077630D02*
X0140214Y0078400D01*
X0141755Y0078400D01*
X0142525Y0077630D01*
X0139444Y0074549D01*
X0140214Y0073778D01*
X0141755Y0073778D01*
X0142525Y0074549D01*
X0142525Y0077630D01*
X0144156Y0076860D02*
X0144156Y0074549D01*
X0144927Y0073778D01*
X0147238Y0073778D01*
X0147238Y0076860D01*
X0148869Y0076089D02*
X0150410Y0076089D01*
X0148869Y0073778D02*
X0148869Y0078400D01*
X0151951Y0078400D01*
X0139444Y0077630D02*
X0139444Y0074549D01*
X0070873Y0143900D02*
X0070873Y0148522D01*
X0073954Y0148522D01*
X0072414Y0146211D02*
X0070873Y0146211D01*
X0069242Y0146982D02*
X0069242Y0143900D01*
X0066931Y0143900D01*
X0066160Y0144671D01*
X0066160Y0146982D01*
X0064529Y0147752D02*
X0064529Y0144671D01*
X0063759Y0143900D01*
X0062218Y0143900D01*
X0061448Y0144671D01*
X0064529Y0147752D01*
X0063759Y0148522D01*
X0062218Y0148522D01*
X0061448Y0147752D01*
X0061448Y0144671D01*
X0059816Y0143900D02*
X0056735Y0143900D01*
X0058276Y0143900D02*
X0058276Y0148522D01*
X0056735Y0146982D01*
X0056291Y0173160D02*
X0053980Y0173160D01*
X0053210Y0173931D01*
X0053210Y0176242D01*
X0051578Y0173160D02*
X0048497Y0173160D01*
X0050038Y0173160D02*
X0050038Y0177782D01*
X0048497Y0176242D01*
X0046911Y0173931D02*
X0046911Y0173160D01*
X0046141Y0173160D01*
X0046141Y0173931D01*
X0046911Y0173931D01*
X0044509Y0173931D02*
X0044509Y0177012D01*
X0041428Y0173931D01*
X0042198Y0173160D01*
X0043739Y0173160D01*
X0044509Y0173931D01*
X0044509Y0177012D02*
X0043739Y0177782D01*
X0042198Y0177782D01*
X0041428Y0177012D01*
X0041428Y0173931D01*
X0056291Y0173160D02*
X0056291Y0176242D01*
X0057922Y0175471D02*
X0059463Y0175471D01*
X0057922Y0173160D02*
X0057922Y0177782D01*
X0061004Y0177782D01*
X0064396Y0177012D02*
X0065167Y0177782D01*
X0066707Y0177782D01*
X0067478Y0177012D01*
X0064396Y0173931D01*
X0065167Y0173160D01*
X0066707Y0173160D01*
X0067478Y0173931D01*
X0067478Y0177012D01*
X0069109Y0173931D02*
X0069879Y0173931D01*
X0069879Y0173160D01*
X0069109Y0173160D01*
X0069109Y0173931D01*
X0071465Y0173160D02*
X0074547Y0173160D01*
X0073006Y0173160D02*
X0073006Y0177782D01*
X0071465Y0176242D01*
X0076178Y0176242D02*
X0076178Y0173931D01*
X0076948Y0173160D01*
X0079260Y0173160D01*
X0079260Y0176242D01*
X0080891Y0175471D02*
X0082432Y0175471D01*
X0080891Y0177782D02*
X0083972Y0177782D01*
X0080891Y0177782D02*
X0080891Y0173160D01*
X0064396Y0173931D02*
X0064396Y0177012D01*
X0096379Y0191296D02*
X0097959Y0191296D01*
X0098585Y0196796D02*
X0115078Y0196796D01*
X0115704Y0191296D02*
X0117284Y0191296D01*
X0107959Y0191296D02*
X0105704Y0191296D01*
X0115077Y0196796D02*
X0115230Y0196597D01*
X0115378Y0196395D01*
X0115521Y0196190D01*
X0115659Y0195981D01*
X0115792Y0195769D01*
X0115920Y0195554D01*
X0116042Y0195336D01*
X0116160Y0195115D01*
X0116272Y0194891D01*
X0116379Y0194665D01*
X0116480Y0194436D01*
X0116576Y0194205D01*
X0116667Y0193971D01*
X0116752Y0193736D01*
X0116831Y0193498D01*
X0116904Y0193259D01*
X0116972Y0193018D01*
X0117034Y0192776D01*
X0117090Y0192532D01*
X0117141Y0192286D01*
X0117185Y0192040D01*
X0117224Y0191793D01*
X0117256Y0191545D01*
X0117283Y0191296D01*
X0103735Y0180263D02*
X0103493Y0180341D01*
X0103253Y0180425D01*
X0103015Y0180514D01*
X0102779Y0180610D01*
X0102545Y0180711D01*
X0102314Y0180817D01*
X0102086Y0180930D01*
X0101860Y0181047D01*
X0101637Y0181170D01*
X0101418Y0181299D01*
X0101201Y0181433D01*
X0100988Y0181572D01*
X0100778Y0181716D01*
X0100572Y0181865D01*
X0100370Y0182019D01*
X0100171Y0182178D01*
X0099976Y0182342D01*
X0099785Y0182511D01*
X0099599Y0182684D01*
X0099416Y0182861D01*
X0099238Y0183043D01*
X0099065Y0183229D01*
X0098896Y0183420D01*
X0098732Y0183614D01*
X0098572Y0183812D01*
X0098417Y0184014D01*
X0098268Y0184220D01*
X0098123Y0184429D01*
X0097983Y0184642D01*
X0097849Y0184858D01*
X0097720Y0185078D01*
X0097596Y0185300D01*
X0097477Y0185525D01*
X0097365Y0185753D01*
X0097257Y0185984D01*
X0097156Y0186217D01*
X0097060Y0186453D01*
X0096969Y0186691D01*
X0096885Y0186931D01*
X0096806Y0187173D01*
X0096733Y0187417D01*
X0096667Y0187663D01*
X0096606Y0187910D01*
X0096551Y0188158D01*
X0096502Y0188408D01*
X0096459Y0188659D01*
X0096423Y0188911D01*
X0096392Y0189163D01*
X0096368Y0189417D01*
X0096350Y0189670D01*
X0096338Y0189925D01*
X0096332Y0190179D01*
X0096332Y0190434D01*
X0096338Y0190688D01*
X0096351Y0190942D01*
X0096370Y0191196D01*
X0096395Y0191449D01*
X0096426Y0191702D01*
X0096463Y0191954D01*
X0096506Y0192204D01*
X0096555Y0192454D01*
X0096610Y0192703D01*
X0096672Y0192950D01*
X0096739Y0193195D01*
X0096812Y0193439D01*
X0096891Y0193681D01*
X0096976Y0193920D01*
X0097067Y0194158D01*
X0097164Y0194394D01*
X0097266Y0194627D01*
X0097374Y0194857D01*
X0097487Y0195085D01*
X0097606Y0195310D01*
X0097730Y0195532D01*
X0097859Y0195751D01*
X0097994Y0195967D01*
X0098134Y0196180D01*
X0098280Y0196389D01*
X0098430Y0196594D01*
X0098585Y0196796D01*
X0117283Y0191296D02*
X0117305Y0191041D01*
X0117320Y0190785D01*
X0117328Y0190529D01*
X0117331Y0190272D01*
X0117327Y0190016D01*
X0117317Y0189760D01*
X0117301Y0189504D01*
X0117279Y0189249D01*
X0117250Y0188994D01*
X0117215Y0188740D01*
X0117174Y0188487D01*
X0117127Y0188235D01*
X0117073Y0187985D01*
X0117014Y0187736D01*
X0116948Y0187488D01*
X0116877Y0187242D01*
X0116799Y0186997D01*
X0116716Y0186755D01*
X0116627Y0186515D01*
X0116531Y0186277D01*
X0116430Y0186041D01*
X0116324Y0185808D01*
X0116211Y0185578D01*
X0116093Y0185350D01*
X0115970Y0185126D01*
X0115841Y0184904D01*
X0115707Y0184686D01*
X0115567Y0184471D01*
X0115422Y0184260D01*
X0115272Y0184052D01*
X0115118Y0183848D01*
X0114958Y0183647D01*
X0114793Y0183451D01*
X0114624Y0183259D01*
X0114449Y0183070D01*
X0114271Y0182887D01*
X0114088Y0182707D01*
X0113900Y0182532D01*
X0113709Y0182362D01*
X0113513Y0182197D01*
X0113313Y0182036D01*
X0113110Y0181880D01*
X0112903Y0181730D01*
X0112692Y0181584D01*
X0112477Y0181443D01*
X0112260Y0181308D01*
X0112039Y0181178D01*
X0111815Y0181054D01*
X0111588Y0180935D01*
X0111358Y0180822D01*
X0111125Y0180714D01*
X0110890Y0180612D01*
X0110652Y0180516D01*
X0110413Y0180426D01*
X0110171Y0180341D01*
X0109927Y0180263D01*
X0130198Y0152223D02*
X0131739Y0152223D01*
X0132509Y0151453D01*
X0129428Y0148372D01*
X0130198Y0147601D01*
X0131739Y0147601D01*
X0132509Y0148372D01*
X0132509Y0151453D01*
X0130198Y0152223D02*
X0129428Y0151453D01*
X0129428Y0148372D01*
X0134141Y0148372D02*
X0134141Y0147601D01*
X0134911Y0147601D01*
X0134911Y0148372D01*
X0134141Y0148372D01*
X0136497Y0147601D02*
X0139578Y0147601D01*
X0138038Y0147601D02*
X0138038Y0152223D01*
X0136497Y0150683D01*
X0141210Y0150683D02*
X0141210Y0148372D01*
X0141980Y0147601D01*
X0144291Y0147601D01*
X0144291Y0150683D01*
X0145922Y0149912D02*
X0147463Y0149912D01*
X0145922Y0147601D02*
X0145922Y0152223D01*
X0149004Y0152223D01*
X0021194Y0188493D02*
X0021194Y0198493D01*
X0016194Y0193493D01*
X0021194Y0188493D01*
X0021194Y0188691D02*
X0020996Y0188691D01*
X0021194Y0189189D02*
X0020497Y0189189D01*
X0019999Y0189688D02*
X0021194Y0189688D01*
X0021194Y0190186D02*
X0019500Y0190186D01*
X0019002Y0190685D02*
X0021194Y0190685D01*
X0021194Y0191183D02*
X0018503Y0191183D01*
X0018005Y0191682D02*
X0021194Y0191682D01*
X0021194Y0192180D02*
X0017506Y0192180D01*
X0017008Y0192679D02*
X0021194Y0192679D01*
X0021194Y0193177D02*
X0016509Y0193177D01*
X0016377Y0193676D02*
X0021194Y0193676D01*
X0021194Y0194174D02*
X0016875Y0194174D01*
X0017374Y0194673D02*
X0021194Y0194673D01*
X0021194Y0195171D02*
X0017872Y0195171D01*
X0018371Y0195670D02*
X0021194Y0195670D01*
X0021194Y0196168D02*
X0018869Y0196168D01*
X0019368Y0196667D02*
X0021194Y0196667D01*
X0021194Y0197165D02*
X0019866Y0197165D01*
X0020365Y0197664D02*
X0021194Y0197664D01*
X0021194Y0198162D02*
X0020863Y0198162D01*
X0019913Y0199570D02*
X0019292Y0199570D01*
X0018981Y0199880D01*
X0019602Y0200502D02*
X0019913Y0200502D01*
X0020224Y0200191D01*
X0020224Y0199880D01*
X0019913Y0199570D01*
X0019913Y0200502D02*
X0020224Y0200812D01*
X0020224Y0201123D01*
X0019913Y0201433D01*
X0019292Y0201433D01*
X0018981Y0201123D01*
X0018049Y0201433D02*
X0016806Y0201433D01*
X0017427Y0201433D02*
X0017427Y0199570D01*
X0015977Y0199570D02*
X0015356Y0199570D01*
X0015667Y0199570D02*
X0015667Y0201433D01*
X0015977Y0201433D02*
X0015356Y0201433D01*
X0014423Y0201433D02*
X0013181Y0200191D01*
X0013492Y0200502D02*
X0014423Y0199570D01*
X0013181Y0199570D02*
X0013181Y0201433D01*
X0012248Y0201123D02*
X0011938Y0201433D01*
X0011316Y0201433D01*
X0011006Y0201123D01*
X0011006Y0199880D01*
X0011316Y0199570D01*
X0011938Y0199570D01*
X0012248Y0199880D01*
X0010177Y0199570D02*
X0009556Y0199570D01*
X0009866Y0199570D02*
X0009866Y0201433D01*
X0009556Y0201433D02*
X0010177Y0201433D01*
X0008623Y0201123D02*
X0008623Y0200502D01*
X0008313Y0200191D01*
X0007381Y0200191D01*
X0007381Y0199570D02*
X0007381Y0201433D01*
X0008313Y0201433D01*
X0008623Y0201123D01*
D16*
X0065611Y0159280D03*
X0143209Y0089083D03*
D17*
X0192737Y0088237D02*
X0192737Y0093237D01*
X0195237Y0095737D01*
X0192737Y0098237D01*
X0192737Y0103237D01*
X0195237Y0105737D01*
X0192737Y0108237D01*
X0192737Y0113237D01*
X0195237Y0115737D01*
X0192737Y0118237D01*
X0192737Y0123237D01*
X0195237Y0125737D01*
X0192737Y0128237D01*
X0192737Y0133237D01*
X0195237Y0135737D01*
X0192737Y0138237D01*
X0192737Y0143237D01*
X0195237Y0145737D01*
X0200237Y0145737D01*
X0202737Y0143237D01*
X0202737Y0138237D01*
X0200237Y0135737D01*
X0202737Y0133237D01*
X0202737Y0128237D01*
X0200237Y0125737D01*
X0202737Y0123237D01*
X0202737Y0118237D01*
X0200237Y0115737D01*
X0202737Y0113237D01*
X0202737Y0108237D01*
X0200237Y0105737D01*
X0202737Y0103237D01*
X0202737Y0098237D01*
X0200237Y0095737D01*
X0202737Y0093237D01*
X0202737Y0088237D01*
X0200237Y0085737D01*
X0202737Y0083237D01*
X0202737Y0078237D01*
X0200237Y0075737D01*
X0202737Y0073237D01*
X0202737Y0068237D01*
X0200237Y0065737D01*
X0195237Y0065737D01*
X0192737Y0068237D01*
X0192737Y0073237D01*
X0195237Y0075737D01*
X0192737Y0078237D01*
X0192737Y0083237D01*
X0195237Y0085737D01*
X0192737Y0088237D01*
X0176343Y0027737D02*
X0156343Y0027737D01*
X0153843Y0022737D01*
X0151343Y0020237D01*
X0151343Y0015237D01*
X0153843Y0012737D01*
X0156343Y0007737D01*
X0176343Y0007737D01*
X0178843Y0012737D01*
X0181343Y0015237D01*
X0181343Y0020237D01*
X0178843Y0022737D01*
X0176343Y0027737D01*
X0078650Y0066623D02*
X0078650Y0091623D01*
X0076150Y0094123D01*
X0071150Y0094123D01*
X0068650Y0091623D01*
X0068650Y0066623D01*
X0071150Y0064123D01*
X0076150Y0064123D01*
X0078650Y0066623D01*
X0054091Y0027737D02*
X0056591Y0022737D01*
X0059091Y0020237D01*
X0059091Y0015237D01*
X0056591Y0012737D01*
X0054091Y0007737D01*
X0034091Y0007737D01*
X0031591Y0012737D01*
X0029091Y0015237D01*
X0029091Y0020237D01*
X0031591Y0022737D01*
X0034091Y0027737D01*
X0054091Y0027737D01*
X0015737Y0068237D02*
X0015737Y0073237D01*
X0013237Y0075737D01*
X0015737Y0078237D01*
X0015737Y0083237D01*
X0013237Y0085737D01*
X0015737Y0088237D01*
X0015737Y0093237D01*
X0013237Y0095737D01*
X0015737Y0098237D01*
X0015737Y0103237D01*
X0013237Y0105737D01*
X0015737Y0108237D01*
X0015737Y0113237D01*
X0013237Y0115737D01*
X0015737Y0118237D01*
X0015737Y0123237D01*
X0013237Y0125737D01*
X0015737Y0128237D01*
X0015737Y0133237D01*
X0013237Y0135737D01*
X0015737Y0138237D01*
X0015737Y0143237D01*
X0013237Y0145737D01*
X0008237Y0145737D01*
X0005737Y0143237D01*
X0005737Y0138237D01*
X0008237Y0135737D01*
X0005737Y0133237D01*
X0005737Y0128237D01*
X0008237Y0125737D01*
X0005737Y0123237D01*
X0005737Y0118237D01*
X0008237Y0115737D01*
X0005737Y0113237D01*
X0005737Y0108237D01*
X0008237Y0105737D01*
X0005737Y0103237D01*
X0005737Y0098237D01*
X0008237Y0095737D01*
X0005737Y0093237D01*
X0005737Y0088237D01*
X0008237Y0085737D01*
X0005737Y0083237D01*
X0005737Y0078237D01*
X0008237Y0075737D01*
X0005737Y0073237D01*
X0005737Y0068237D01*
X0008237Y0065737D01*
X0013237Y0065737D01*
X0015737Y0068237D01*
D18*
X0019112Y0035737D03*
X0047512Y0035737D03*
X0067828Y0011682D03*
X0096228Y0011682D03*
X0114128Y0011383D03*
X0142528Y0011383D03*
X0160647Y0035737D03*
X0189047Y0035737D03*
D19*
X0155981Y0176013D02*
X0122123Y0176013D01*
X0122123Y0192942D01*
X0155981Y0192942D01*
X0155981Y0176013D01*
X0146926Y0194320D02*
X0146926Y0200225D01*
X0144957Y0200225D01*
X0142989Y0198257D01*
X0141020Y0200225D01*
X0139052Y0200225D01*
X0139052Y0194320D01*
D20*
X0135578Y0194420D02*
X0134135Y0194420D01*
X0134135Y0196584D01*
X0135578Y0196584D01*
X0134856Y0195502D02*
X0134135Y0195502D01*
X0133403Y0196223D02*
X0133403Y0194780D01*
X0133042Y0194420D01*
X0131960Y0194420D01*
X0131960Y0196584D01*
X0133042Y0196584D01*
X0133403Y0196223D01*
X0131231Y0196584D02*
X0130510Y0196584D01*
X0130871Y0196584D02*
X0130871Y0194420D01*
X0131231Y0194420D02*
X0130510Y0194420D01*
X0129778Y0194420D02*
X0128335Y0194420D01*
X0128335Y0196584D01*
X0127603Y0196223D02*
X0127242Y0196584D01*
X0126521Y0196584D01*
X0126160Y0196223D01*
X0126160Y0195862D01*
X0126521Y0195502D01*
X0127242Y0195502D01*
X0127603Y0195141D01*
X0127603Y0194780D01*
X0127242Y0194420D01*
X0126521Y0194420D01*
X0126160Y0194780D01*
X0112990Y0197758D02*
X0111548Y0197758D01*
X0112990Y0199201D01*
X0112990Y0199562D01*
X0112630Y0199922D01*
X0111908Y0199922D01*
X0111548Y0199562D01*
X0110815Y0199562D02*
X0109373Y0198119D01*
X0109733Y0197758D01*
X0110455Y0197758D01*
X0110815Y0198119D01*
X0110815Y0199562D01*
X0110455Y0199922D01*
X0109733Y0199922D01*
X0109373Y0199562D01*
X0109373Y0198119D01*
X0108640Y0199562D02*
X0107198Y0198119D01*
X0107198Y0197758D01*
X0106465Y0197758D02*
X0105022Y0197758D01*
X0105744Y0197758D02*
X0105744Y0199922D01*
X0105022Y0199201D01*
X0104290Y0199562D02*
X0104290Y0198840D01*
X0103929Y0198480D01*
X0102847Y0198480D01*
X0102847Y0197758D02*
X0102847Y0199922D01*
X0103929Y0199922D01*
X0104290Y0199562D01*
X0102115Y0199562D02*
X0101754Y0199922D01*
X0101033Y0199922D01*
X0100672Y0199562D01*
X0100672Y0198119D01*
X0101033Y0197758D01*
X0101754Y0197758D01*
X0102115Y0198119D01*
X0099940Y0197758D02*
X0099940Y0199922D01*
X0099219Y0199201D01*
X0098497Y0199922D01*
X0098497Y0197758D01*
X0107198Y0199922D02*
X0108640Y0199922D01*
X0108640Y0199562D01*
M02*
