%
M48
M72
T01C0.03150
T02C0.03200
T03C0.03937
T04C0.04000
T05C0.07480
%
T01
X17769Y45123
X35091Y81076
X75769Y118099
X68257Y124493
X131178Y184477
X139052Y184477
X146926Y184477
X174674Y165501
X177824Y170225
X180973Y165501
X184123Y170225
X187272Y165501
X187798Y115312
X179737Y97737
X159737Y79737
X147737Y65737
X155343Y45107
X175013Y69737
X185737Y59737
X187737Y49737
X187737Y39737
X97737Y21018
X82524Y25737
T02
X15737Y10737
X15737Y20737
X13312Y35737
X53312Y35737
X66839Y48178
X76839Y48178
X89162Y49162
X89162Y39162
X89162Y59162
X89162Y69162
X89162Y79162
X89162Y89162
X89162Y99162
X89162Y109162
X89162Y119162
X89162Y129162
X89162Y139162
X89162Y149162
X89162Y159162
X89162Y169162
X73611Y159280
X53611Y159280
X54391Y187910
X44391Y187910
X68146Y187910
X78146Y187910
X101831Y190296
X106831Y182796
X111831Y190296
X119162Y169162
X119162Y159162
X119162Y149162
X119162Y139162
X119162Y129162
X119162Y119162
X119162Y109162
X119162Y99162
X119162Y89162
X119162Y79162
X119162Y69162
X119162Y59162
X119162Y49162
X119162Y39162
X108328Y11383
X102028Y11682
X62028Y11682
X131209Y89083
X151209Y89083
X154847Y35737
X148328Y11383
X192288Y10737
X192288Y20737
X194847Y35737
X142391Y162351
X132391Y162351
T03
X123304Y184477
X154800Y184477
T04
X11194Y193493
X11194Y183493
X11194Y173493
X11194Y163493
X11194Y153493
X10737Y140737
X10737Y130737
X10737Y120737
X10737Y110737
X10737Y100737
X10737Y90737
X10737Y80737
X10737Y70737
X34091Y17737
X54091Y17737
X73650Y69123
X73650Y79123
X73650Y89123
X156343Y17737
X176343Y17737
X197737Y70737
X197737Y80737
X197737Y90737
X197737Y100737
X197737Y110737
X197737Y120737
X197737Y130737
X197737Y140737
T05
X166603Y185580
X195343Y185580
M30
